G04 #@! TF.GenerationSoftware,KiCad,Pcbnew,9.0.4*
G04 #@! TF.CreationDate,2025-08-30T14:04:45-07:00*
G04 #@! TF.ProjectId,romi_board_bottom,726f6d69-5f62-46f6-9172-645f626f7474,rev?*
G04 #@! TF.SameCoordinates,Original*
G04 #@! TF.FileFunction,Legend,Top*
G04 #@! TF.FilePolarity,Positive*
%FSLAX46Y46*%
G04 Gerber Fmt 4.6, Leading zero omitted, Abs format (unit mm)*
G04 Created by KiCad (PCBNEW 9.0.4) date 2025-08-30 14:04:45*
%MOMM*%
%LPD*%
G01*
G04 APERTURE LIST*
%ADD10C,0.120000*%
%ADD11C,0.150000*%
G04 APERTURE END LIST*
D10*
X70192122Y-101310976D02*
G75*
G02*
X68192122Y-101310976I-1000000J0D01*
G01*
X68192122Y-101310976D02*
G75*
G02*
X70192122Y-101310976I1000000J0D01*
G01*
D11*
X59134026Y-116271985D02*
X59467359Y-116271985D01*
X59610216Y-116795795D02*
X59134026Y-116795795D01*
X59134026Y-116795795D02*
X59134026Y-115795795D01*
X59134026Y-115795795D02*
X59610216Y-115795795D01*
X60038788Y-116795795D02*
X60038788Y-115795795D01*
X60038788Y-115795795D02*
X60610216Y-116795795D01*
X60610216Y-116795795D02*
X60610216Y-115795795D01*
X61657835Y-116700556D02*
X61610216Y-116748176D01*
X61610216Y-116748176D02*
X61467359Y-116795795D01*
X61467359Y-116795795D02*
X61372121Y-116795795D01*
X61372121Y-116795795D02*
X61229264Y-116748176D01*
X61229264Y-116748176D02*
X61134026Y-116652937D01*
X61134026Y-116652937D02*
X61086407Y-116557699D01*
X61086407Y-116557699D02*
X61038788Y-116367223D01*
X61038788Y-116367223D02*
X61038788Y-116224366D01*
X61038788Y-116224366D02*
X61086407Y-116033890D01*
X61086407Y-116033890D02*
X61134026Y-115938652D01*
X61134026Y-115938652D02*
X61229264Y-115843414D01*
X61229264Y-115843414D02*
X61372121Y-115795795D01*
X61372121Y-115795795D02*
X61467359Y-115795795D01*
X61467359Y-115795795D02*
X61610216Y-115843414D01*
X61610216Y-115843414D02*
X61657835Y-115891033D01*
X62276883Y-115795795D02*
X62467359Y-115795795D01*
X62467359Y-115795795D02*
X62562597Y-115843414D01*
X62562597Y-115843414D02*
X62657835Y-115938652D01*
X62657835Y-115938652D02*
X62705454Y-116129128D01*
X62705454Y-116129128D02*
X62705454Y-116462461D01*
X62705454Y-116462461D02*
X62657835Y-116652937D01*
X62657835Y-116652937D02*
X62562597Y-116748176D01*
X62562597Y-116748176D02*
X62467359Y-116795795D01*
X62467359Y-116795795D02*
X62276883Y-116795795D01*
X62276883Y-116795795D02*
X62181645Y-116748176D01*
X62181645Y-116748176D02*
X62086407Y-116652937D01*
X62086407Y-116652937D02*
X62038788Y-116462461D01*
X62038788Y-116462461D02*
X62038788Y-116129128D01*
X62038788Y-116129128D02*
X62086407Y-115938652D01*
X62086407Y-115938652D02*
X62181645Y-115843414D01*
X62181645Y-115843414D02*
X62276883Y-115795795D01*
X63134026Y-116795795D02*
X63134026Y-115795795D01*
X63134026Y-115795795D02*
X63372121Y-115795795D01*
X63372121Y-115795795D02*
X63514978Y-115843414D01*
X63514978Y-115843414D02*
X63610216Y-115938652D01*
X63610216Y-115938652D02*
X63657835Y-116033890D01*
X63657835Y-116033890D02*
X63705454Y-116224366D01*
X63705454Y-116224366D02*
X63705454Y-116367223D01*
X63705454Y-116367223D02*
X63657835Y-116557699D01*
X63657835Y-116557699D02*
X63610216Y-116652937D01*
X63610216Y-116652937D02*
X63514978Y-116748176D01*
X63514978Y-116748176D02*
X63372121Y-116795795D01*
X63372121Y-116795795D02*
X63134026Y-116795795D01*
X64134026Y-116271985D02*
X64467359Y-116271985D01*
X64610216Y-116795795D02*
X64134026Y-116795795D01*
X64134026Y-116795795D02*
X64134026Y-115795795D01*
X64134026Y-115795795D02*
X64610216Y-115795795D01*
X65610216Y-116795795D02*
X65276883Y-116319604D01*
X65038788Y-116795795D02*
X65038788Y-115795795D01*
X65038788Y-115795795D02*
X65419740Y-115795795D01*
X65419740Y-115795795D02*
X65514978Y-115843414D01*
X65514978Y-115843414D02*
X65562597Y-115891033D01*
X65562597Y-115891033D02*
X65610216Y-115986271D01*
X65610216Y-115986271D02*
X65610216Y-116129128D01*
X65610216Y-116129128D02*
X65562597Y-116224366D01*
X65562597Y-116224366D02*
X65514978Y-116271985D01*
X65514978Y-116271985D02*
X65419740Y-116319604D01*
X65419740Y-116319604D02*
X65038788Y-116319604D01*
X65800693Y-116891033D02*
X66562597Y-116891033D01*
X67276883Y-116795795D02*
X66800693Y-116795795D01*
X66800693Y-116795795D02*
X66800693Y-115795795D01*
X67610217Y-116271985D02*
X67943550Y-116271985D01*
X68086407Y-116795795D02*
X67610217Y-116795795D01*
X67610217Y-116795795D02*
X67610217Y-115795795D01*
X67610217Y-115795795D02*
X68086407Y-115795795D01*
X68848312Y-116271985D02*
X68514979Y-116271985D01*
X68514979Y-116795795D02*
X68514979Y-115795795D01*
X68514979Y-115795795D02*
X68991169Y-115795795D01*
X69229265Y-115795795D02*
X69800693Y-115795795D01*
X69514979Y-116795795D02*
X69514979Y-115795795D01*
X70657836Y-116795795D02*
X70086408Y-116795795D01*
X70372122Y-116795795D02*
X70372122Y-115795795D01*
X70372122Y-115795795D02*
X70276884Y-115938652D01*
X70276884Y-115938652D02*
X70181646Y-116033890D01*
X70181646Y-116033890D02*
X70086408Y-116081509D01*
X71299765Y-113621049D02*
X71347384Y-113478192D01*
X71347384Y-113478192D02*
X71395003Y-113430573D01*
X71395003Y-113430573D02*
X71490241Y-113382954D01*
X71490241Y-113382954D02*
X71633098Y-113382954D01*
X71633098Y-113382954D02*
X71728336Y-113430573D01*
X71728336Y-113430573D02*
X71775956Y-113478192D01*
X71775956Y-113478192D02*
X71823575Y-113573430D01*
X71823575Y-113573430D02*
X71823575Y-113954382D01*
X71823575Y-113954382D02*
X70823575Y-113954382D01*
X70823575Y-113954382D02*
X70823575Y-113621049D01*
X70823575Y-113621049D02*
X70871194Y-113525811D01*
X70871194Y-113525811D02*
X70918813Y-113478192D01*
X70918813Y-113478192D02*
X71014051Y-113430573D01*
X71014051Y-113430573D02*
X71109289Y-113430573D01*
X71109289Y-113430573D02*
X71204527Y-113478192D01*
X71204527Y-113478192D02*
X71252146Y-113525811D01*
X71252146Y-113525811D02*
X71299765Y-113621049D01*
X71299765Y-113621049D02*
X71299765Y-113954382D01*
X70918813Y-113002001D02*
X70871194Y-112954382D01*
X70871194Y-112954382D02*
X70823575Y-112859144D01*
X70823575Y-112859144D02*
X70823575Y-112621049D01*
X70823575Y-112621049D02*
X70871194Y-112525811D01*
X70871194Y-112525811D02*
X70918813Y-112478192D01*
X70918813Y-112478192D02*
X71014051Y-112430573D01*
X71014051Y-112430573D02*
X71109289Y-112430573D01*
X71109289Y-112430573D02*
X71252146Y-112478192D01*
X71252146Y-112478192D02*
X71823575Y-113049620D01*
X71823575Y-113049620D02*
X71823575Y-112430573D01*
X71823575Y-112002001D02*
X70823575Y-112002001D01*
X70823575Y-112002001D02*
X70823575Y-111621049D01*
X70823575Y-111621049D02*
X70871194Y-111525811D01*
X70871194Y-111525811D02*
X70918813Y-111478192D01*
X70918813Y-111478192D02*
X71014051Y-111430573D01*
X71014051Y-111430573D02*
X71156908Y-111430573D01*
X71156908Y-111430573D02*
X71252146Y-111478192D01*
X71252146Y-111478192D02*
X71299765Y-111525811D01*
X71299765Y-111525811D02*
X71347384Y-111621049D01*
X71347384Y-111621049D02*
X71347384Y-112002001D01*
X71823575Y-110478192D02*
X71823575Y-111049620D01*
X71823575Y-110763906D02*
X70823575Y-110763906D01*
X70823575Y-110763906D02*
X70966432Y-110859144D01*
X70966432Y-110859144D02*
X71061670Y-110954382D01*
X71061670Y-110954382D02*
X71109289Y-111049620D01*
X71299765Y-99192477D02*
X71347384Y-99049620D01*
X71347384Y-99049620D02*
X71395003Y-99002001D01*
X71395003Y-99002001D02*
X71490241Y-98954382D01*
X71490241Y-98954382D02*
X71633098Y-98954382D01*
X71633098Y-98954382D02*
X71728336Y-99002001D01*
X71728336Y-99002001D02*
X71775956Y-99049620D01*
X71775956Y-99049620D02*
X71823575Y-99144858D01*
X71823575Y-99144858D02*
X71823575Y-99525810D01*
X71823575Y-99525810D02*
X70823575Y-99525810D01*
X70823575Y-99525810D02*
X70823575Y-99192477D01*
X70823575Y-99192477D02*
X70871194Y-99097239D01*
X70871194Y-99097239D02*
X70918813Y-99049620D01*
X70918813Y-99049620D02*
X71014051Y-99002001D01*
X71014051Y-99002001D02*
X71109289Y-99002001D01*
X71109289Y-99002001D02*
X71204527Y-99049620D01*
X71204527Y-99049620D02*
X71252146Y-99097239D01*
X71252146Y-99097239D02*
X71299765Y-99192477D01*
X71299765Y-99192477D02*
X71299765Y-99525810D01*
X70918813Y-98573429D02*
X70871194Y-98525810D01*
X70871194Y-98525810D02*
X70823575Y-98430572D01*
X70823575Y-98430572D02*
X70823575Y-98192477D01*
X70823575Y-98192477D02*
X70871194Y-98097239D01*
X70871194Y-98097239D02*
X70918813Y-98049620D01*
X70918813Y-98049620D02*
X71014051Y-98002001D01*
X71014051Y-98002001D02*
X71109289Y-98002001D01*
X71109289Y-98002001D02*
X71252146Y-98049620D01*
X71252146Y-98049620D02*
X71823575Y-98621048D01*
X71823575Y-98621048D02*
X71823575Y-98002001D01*
X71823575Y-97573429D02*
X70823575Y-97573429D01*
X70823575Y-97573429D02*
X71537860Y-97240096D01*
X71537860Y-97240096D02*
X70823575Y-96906763D01*
X70823575Y-96906763D02*
X71823575Y-96906763D01*
X71823575Y-95906763D02*
X71823575Y-96478191D01*
X71823575Y-96192477D02*
X70823575Y-96192477D01*
X70823575Y-96192477D02*
X70966432Y-96287715D01*
X70966432Y-96287715D02*
X71061670Y-96382953D01*
X71061670Y-96382953D02*
X71109289Y-96478191D01*
X95161702Y-114018595D02*
X95209322Y-114066214D01*
X95209322Y-114066214D02*
X95256941Y-114209071D01*
X95256941Y-114209071D02*
X95256941Y-114304309D01*
X95256941Y-114304309D02*
X95209322Y-114447166D01*
X95209322Y-114447166D02*
X95114083Y-114542404D01*
X95114083Y-114542404D02*
X95018845Y-114590023D01*
X95018845Y-114590023D02*
X94828369Y-114637642D01*
X94828369Y-114637642D02*
X94685512Y-114637642D01*
X94685512Y-114637642D02*
X94495036Y-114590023D01*
X94495036Y-114590023D02*
X94399798Y-114542404D01*
X94399798Y-114542404D02*
X94304560Y-114447166D01*
X94304560Y-114447166D02*
X94256941Y-114304309D01*
X94256941Y-114304309D02*
X94256941Y-114209071D01*
X94256941Y-114209071D02*
X94304560Y-114066214D01*
X94304560Y-114066214D02*
X94352179Y-114018595D01*
X95352179Y-113828119D02*
X95352179Y-113066214D01*
X95256941Y-112828118D02*
X94256941Y-112828118D01*
X94733131Y-112018595D02*
X94780750Y-111875738D01*
X94780750Y-111875738D02*
X94828369Y-111828119D01*
X94828369Y-111828119D02*
X94923607Y-111780500D01*
X94923607Y-111780500D02*
X95066464Y-111780500D01*
X95066464Y-111780500D02*
X95161702Y-111828119D01*
X95161702Y-111828119D02*
X95209322Y-111875738D01*
X95209322Y-111875738D02*
X95256941Y-111970976D01*
X95256941Y-111970976D02*
X95256941Y-112351928D01*
X95256941Y-112351928D02*
X94256941Y-112351928D01*
X94256941Y-112351928D02*
X94256941Y-112018595D01*
X94256941Y-112018595D02*
X94304560Y-111923357D01*
X94304560Y-111923357D02*
X94352179Y-111875738D01*
X94352179Y-111875738D02*
X94447417Y-111828119D01*
X94447417Y-111828119D02*
X94542655Y-111828119D01*
X94542655Y-111828119D02*
X94637893Y-111875738D01*
X94637893Y-111875738D02*
X94685512Y-111923357D01*
X94685512Y-111923357D02*
X94733131Y-112018595D01*
X94733131Y-112018595D02*
X94733131Y-112351928D01*
X95161702Y-110780500D02*
X95209322Y-110828119D01*
X95209322Y-110828119D02*
X95256941Y-110970976D01*
X95256941Y-110970976D02*
X95256941Y-111066214D01*
X95256941Y-111066214D02*
X95209322Y-111209071D01*
X95209322Y-111209071D02*
X95114083Y-111304309D01*
X95114083Y-111304309D02*
X95018845Y-111351928D01*
X95018845Y-111351928D02*
X94828369Y-111399547D01*
X94828369Y-111399547D02*
X94685512Y-111399547D01*
X94685512Y-111399547D02*
X94495036Y-111351928D01*
X94495036Y-111351928D02*
X94399798Y-111304309D01*
X94399798Y-111304309D02*
X94304560Y-111209071D01*
X94304560Y-111209071D02*
X94256941Y-111066214D01*
X94256941Y-111066214D02*
X94256941Y-110970976D01*
X94256941Y-110970976D02*
X94304560Y-110828119D01*
X94304560Y-110828119D02*
X94352179Y-110780500D01*
X95352179Y-110590024D02*
X95352179Y-109828119D01*
X94256941Y-109732880D02*
X94256941Y-109161452D01*
X95256941Y-109447166D02*
X94256941Y-109447166D01*
X95256941Y-108304309D02*
X95256941Y-108875737D01*
X95256941Y-108590023D02*
X94256941Y-108590023D01*
X94256941Y-108590023D02*
X94399798Y-108685261D01*
X94399798Y-108685261D02*
X94495036Y-108780499D01*
X94495036Y-108780499D02*
X94542655Y-108875737D01*
X75630217Y-130395795D02*
X75630217Y-129395795D01*
X75630217Y-129871985D02*
X76201645Y-129871985D01*
X76201645Y-130395795D02*
X76201645Y-129395795D01*
X76582598Y-129395795D02*
X77249264Y-129395795D01*
X77249264Y-129395795D02*
X76820693Y-130395795D01*
X125630217Y-130395795D02*
X125630217Y-129395795D01*
X125630217Y-129871985D02*
X126201645Y-129871985D01*
X126201645Y-130395795D02*
X126201645Y-129395795D01*
X126820693Y-129824366D02*
X126725455Y-129776747D01*
X126725455Y-129776747D02*
X126677836Y-129729128D01*
X126677836Y-129729128D02*
X126630217Y-129633890D01*
X126630217Y-129633890D02*
X126630217Y-129586271D01*
X126630217Y-129586271D02*
X126677836Y-129491033D01*
X126677836Y-129491033D02*
X126725455Y-129443414D01*
X126725455Y-129443414D02*
X126820693Y-129395795D01*
X126820693Y-129395795D02*
X127011169Y-129395795D01*
X127011169Y-129395795D02*
X127106407Y-129443414D01*
X127106407Y-129443414D02*
X127154026Y-129491033D01*
X127154026Y-129491033D02*
X127201645Y-129586271D01*
X127201645Y-129586271D02*
X127201645Y-129633890D01*
X127201645Y-129633890D02*
X127154026Y-129729128D01*
X127154026Y-129729128D02*
X127106407Y-129776747D01*
X127106407Y-129776747D02*
X127011169Y-129824366D01*
X127011169Y-129824366D02*
X126820693Y-129824366D01*
X126820693Y-129824366D02*
X126725455Y-129871985D01*
X126725455Y-129871985D02*
X126677836Y-129919604D01*
X126677836Y-129919604D02*
X126630217Y-130014842D01*
X126630217Y-130014842D02*
X126630217Y-130205318D01*
X126630217Y-130205318D02*
X126677836Y-130300556D01*
X126677836Y-130300556D02*
X126725455Y-130348176D01*
X126725455Y-130348176D02*
X126820693Y-130395795D01*
X126820693Y-130395795D02*
X127011169Y-130395795D01*
X127011169Y-130395795D02*
X127106407Y-130348176D01*
X127106407Y-130348176D02*
X127154026Y-130300556D01*
X127154026Y-130300556D02*
X127201645Y-130205318D01*
X127201645Y-130205318D02*
X127201645Y-130014842D01*
X127201645Y-130014842D02*
X127154026Y-129919604D01*
X127154026Y-129919604D02*
X127106407Y-129871985D01*
X127106407Y-129871985D02*
X127011169Y-129824366D01*
X130785714Y-98431009D02*
X131119047Y-98431009D01*
X131261904Y-98954819D02*
X130785714Y-98954819D01*
X130785714Y-98954819D02*
X130785714Y-97954819D01*
X130785714Y-97954819D02*
X131261904Y-97954819D01*
X131690476Y-98954819D02*
X131690476Y-97954819D01*
X131690476Y-97954819D02*
X132261904Y-98954819D01*
X132261904Y-98954819D02*
X132261904Y-97954819D01*
X133309523Y-98859580D02*
X133261904Y-98907200D01*
X133261904Y-98907200D02*
X133119047Y-98954819D01*
X133119047Y-98954819D02*
X133023809Y-98954819D01*
X133023809Y-98954819D02*
X132880952Y-98907200D01*
X132880952Y-98907200D02*
X132785714Y-98811961D01*
X132785714Y-98811961D02*
X132738095Y-98716723D01*
X132738095Y-98716723D02*
X132690476Y-98526247D01*
X132690476Y-98526247D02*
X132690476Y-98383390D01*
X132690476Y-98383390D02*
X132738095Y-98192914D01*
X132738095Y-98192914D02*
X132785714Y-98097676D01*
X132785714Y-98097676D02*
X132880952Y-98002438D01*
X132880952Y-98002438D02*
X133023809Y-97954819D01*
X133023809Y-97954819D02*
X133119047Y-97954819D01*
X133119047Y-97954819D02*
X133261904Y-98002438D01*
X133261904Y-98002438D02*
X133309523Y-98050057D01*
X133928571Y-97954819D02*
X134119047Y-97954819D01*
X134119047Y-97954819D02*
X134214285Y-98002438D01*
X134214285Y-98002438D02*
X134309523Y-98097676D01*
X134309523Y-98097676D02*
X134357142Y-98288152D01*
X134357142Y-98288152D02*
X134357142Y-98621485D01*
X134357142Y-98621485D02*
X134309523Y-98811961D01*
X134309523Y-98811961D02*
X134214285Y-98907200D01*
X134214285Y-98907200D02*
X134119047Y-98954819D01*
X134119047Y-98954819D02*
X133928571Y-98954819D01*
X133928571Y-98954819D02*
X133833333Y-98907200D01*
X133833333Y-98907200D02*
X133738095Y-98811961D01*
X133738095Y-98811961D02*
X133690476Y-98621485D01*
X133690476Y-98621485D02*
X133690476Y-98288152D01*
X133690476Y-98288152D02*
X133738095Y-98097676D01*
X133738095Y-98097676D02*
X133833333Y-98002438D01*
X133833333Y-98002438D02*
X133928571Y-97954819D01*
X134785714Y-98954819D02*
X134785714Y-97954819D01*
X134785714Y-97954819D02*
X135023809Y-97954819D01*
X135023809Y-97954819D02*
X135166666Y-98002438D01*
X135166666Y-98002438D02*
X135261904Y-98097676D01*
X135261904Y-98097676D02*
X135309523Y-98192914D01*
X135309523Y-98192914D02*
X135357142Y-98383390D01*
X135357142Y-98383390D02*
X135357142Y-98526247D01*
X135357142Y-98526247D02*
X135309523Y-98716723D01*
X135309523Y-98716723D02*
X135261904Y-98811961D01*
X135261904Y-98811961D02*
X135166666Y-98907200D01*
X135166666Y-98907200D02*
X135023809Y-98954819D01*
X135023809Y-98954819D02*
X134785714Y-98954819D01*
X135785714Y-98431009D02*
X136119047Y-98431009D01*
X136261904Y-98954819D02*
X135785714Y-98954819D01*
X135785714Y-98954819D02*
X135785714Y-97954819D01*
X135785714Y-97954819D02*
X136261904Y-97954819D01*
X137261904Y-98954819D02*
X136928571Y-98478628D01*
X136690476Y-98954819D02*
X136690476Y-97954819D01*
X136690476Y-97954819D02*
X137071428Y-97954819D01*
X137071428Y-97954819D02*
X137166666Y-98002438D01*
X137166666Y-98002438D02*
X137214285Y-98050057D01*
X137214285Y-98050057D02*
X137261904Y-98145295D01*
X137261904Y-98145295D02*
X137261904Y-98288152D01*
X137261904Y-98288152D02*
X137214285Y-98383390D01*
X137214285Y-98383390D02*
X137166666Y-98431009D01*
X137166666Y-98431009D02*
X137071428Y-98478628D01*
X137071428Y-98478628D02*
X136690476Y-98478628D01*
X137452381Y-99050057D02*
X138214285Y-99050057D01*
X139023809Y-98954819D02*
X138690476Y-98478628D01*
X138452381Y-98954819D02*
X138452381Y-97954819D01*
X138452381Y-97954819D02*
X138833333Y-97954819D01*
X138833333Y-97954819D02*
X138928571Y-98002438D01*
X138928571Y-98002438D02*
X138976190Y-98050057D01*
X138976190Y-98050057D02*
X139023809Y-98145295D01*
X139023809Y-98145295D02*
X139023809Y-98288152D01*
X139023809Y-98288152D02*
X138976190Y-98383390D01*
X138976190Y-98383390D02*
X138928571Y-98431009D01*
X138928571Y-98431009D02*
X138833333Y-98478628D01*
X138833333Y-98478628D02*
X138452381Y-98478628D01*
X139452381Y-98954819D02*
X139452381Y-97954819D01*
X140452380Y-98002438D02*
X140357142Y-97954819D01*
X140357142Y-97954819D02*
X140214285Y-97954819D01*
X140214285Y-97954819D02*
X140071428Y-98002438D01*
X140071428Y-98002438D02*
X139976190Y-98097676D01*
X139976190Y-98097676D02*
X139928571Y-98192914D01*
X139928571Y-98192914D02*
X139880952Y-98383390D01*
X139880952Y-98383390D02*
X139880952Y-98526247D01*
X139880952Y-98526247D02*
X139928571Y-98716723D01*
X139928571Y-98716723D02*
X139976190Y-98811961D01*
X139976190Y-98811961D02*
X140071428Y-98907200D01*
X140071428Y-98907200D02*
X140214285Y-98954819D01*
X140214285Y-98954819D02*
X140309523Y-98954819D01*
X140309523Y-98954819D02*
X140452380Y-98907200D01*
X140452380Y-98907200D02*
X140499999Y-98859580D01*
X140499999Y-98859580D02*
X140499999Y-98526247D01*
X140499999Y-98526247D02*
X140309523Y-98526247D01*
X140928571Y-98954819D02*
X140928571Y-97954819D01*
X140928571Y-98431009D02*
X141499999Y-98431009D01*
X141499999Y-98954819D02*
X141499999Y-97954819D01*
X141833333Y-97954819D02*
X142404761Y-97954819D01*
X142119047Y-98954819D02*
X142119047Y-97954819D01*
X143261904Y-98954819D02*
X142690476Y-98954819D01*
X142976190Y-98954819D02*
X142976190Y-97954819D01*
X142976190Y-97954819D02*
X142880952Y-98097676D01*
X142880952Y-98097676D02*
X142785714Y-98192914D01*
X142785714Y-98192914D02*
X142690476Y-98240533D01*
X72301702Y-145792404D02*
X72349322Y-145840023D01*
X72349322Y-145840023D02*
X72396941Y-145982880D01*
X72396941Y-145982880D02*
X72396941Y-146078118D01*
X72396941Y-146078118D02*
X72349322Y-146220975D01*
X72349322Y-146220975D02*
X72254083Y-146316213D01*
X72254083Y-146316213D02*
X72158845Y-146363832D01*
X72158845Y-146363832D02*
X71968369Y-146411451D01*
X71968369Y-146411451D02*
X71825512Y-146411451D01*
X71825512Y-146411451D02*
X71635036Y-146363832D01*
X71635036Y-146363832D02*
X71539798Y-146316213D01*
X71539798Y-146316213D02*
X71444560Y-146220975D01*
X71444560Y-146220975D02*
X71396941Y-146078118D01*
X71396941Y-146078118D02*
X71396941Y-145982880D01*
X71396941Y-145982880D02*
X71444560Y-145840023D01*
X71444560Y-145840023D02*
X71492179Y-145792404D01*
X72492179Y-145601928D02*
X72492179Y-144840023D01*
X72396941Y-144601927D02*
X71396941Y-144601927D01*
X71873131Y-143792404D02*
X71920750Y-143649547D01*
X71920750Y-143649547D02*
X71968369Y-143601928D01*
X71968369Y-143601928D02*
X72063607Y-143554309D01*
X72063607Y-143554309D02*
X72206464Y-143554309D01*
X72206464Y-143554309D02*
X72301702Y-143601928D01*
X72301702Y-143601928D02*
X72349322Y-143649547D01*
X72349322Y-143649547D02*
X72396941Y-143744785D01*
X72396941Y-143744785D02*
X72396941Y-144125737D01*
X72396941Y-144125737D02*
X71396941Y-144125737D01*
X71396941Y-144125737D02*
X71396941Y-143792404D01*
X71396941Y-143792404D02*
X71444560Y-143697166D01*
X71444560Y-143697166D02*
X71492179Y-143649547D01*
X71492179Y-143649547D02*
X71587417Y-143601928D01*
X71587417Y-143601928D02*
X71682655Y-143601928D01*
X71682655Y-143601928D02*
X71777893Y-143649547D01*
X71777893Y-143649547D02*
X71825512Y-143697166D01*
X71825512Y-143697166D02*
X71873131Y-143792404D01*
X71873131Y-143792404D02*
X71873131Y-144125737D01*
X72301702Y-142554309D02*
X72349322Y-142601928D01*
X72349322Y-142601928D02*
X72396941Y-142744785D01*
X72396941Y-142744785D02*
X72396941Y-142840023D01*
X72396941Y-142840023D02*
X72349322Y-142982880D01*
X72349322Y-142982880D02*
X72254083Y-143078118D01*
X72254083Y-143078118D02*
X72158845Y-143125737D01*
X72158845Y-143125737D02*
X71968369Y-143173356D01*
X71968369Y-143173356D02*
X71825512Y-143173356D01*
X71825512Y-143173356D02*
X71635036Y-143125737D01*
X71635036Y-143125737D02*
X71539798Y-143078118D01*
X71539798Y-143078118D02*
X71444560Y-142982880D01*
X71444560Y-142982880D02*
X71396941Y-142840023D01*
X71396941Y-142840023D02*
X71396941Y-142744785D01*
X71396941Y-142744785D02*
X71444560Y-142601928D01*
X71444560Y-142601928D02*
X71492179Y-142554309D01*
X72492179Y-142363833D02*
X72492179Y-141601928D01*
X72396941Y-140887642D02*
X72396941Y-141363832D01*
X72396941Y-141363832D02*
X71396941Y-141363832D01*
X72396941Y-140030499D02*
X72396941Y-140601927D01*
X72396941Y-140316213D02*
X71396941Y-140316213D01*
X71396941Y-140316213D02*
X71539798Y-140411451D01*
X71539798Y-140411451D02*
X71635036Y-140506689D01*
X71635036Y-140506689D02*
X71682655Y-140601927D01*
X128755455Y-140610556D02*
X128707836Y-140658176D01*
X128707836Y-140658176D02*
X128564979Y-140705795D01*
X128564979Y-140705795D02*
X128469741Y-140705795D01*
X128469741Y-140705795D02*
X128326884Y-140658176D01*
X128326884Y-140658176D02*
X128231646Y-140562937D01*
X128231646Y-140562937D02*
X128184027Y-140467699D01*
X128184027Y-140467699D02*
X128136408Y-140277223D01*
X128136408Y-140277223D02*
X128136408Y-140134366D01*
X128136408Y-140134366D02*
X128184027Y-139943890D01*
X128184027Y-139943890D02*
X128231646Y-139848652D01*
X128231646Y-139848652D02*
X128326884Y-139753414D01*
X128326884Y-139753414D02*
X128469741Y-139705795D01*
X128469741Y-139705795D02*
X128564979Y-139705795D01*
X128564979Y-139705795D02*
X128707836Y-139753414D01*
X128707836Y-139753414D02*
X128755455Y-139801033D01*
X128945932Y-140801033D02*
X129707836Y-140801033D01*
X129945932Y-140705795D02*
X129945932Y-139705795D01*
X130755455Y-140181985D02*
X130898312Y-140229604D01*
X130898312Y-140229604D02*
X130945931Y-140277223D01*
X130945931Y-140277223D02*
X130993550Y-140372461D01*
X130993550Y-140372461D02*
X130993550Y-140515318D01*
X130993550Y-140515318D02*
X130945931Y-140610556D01*
X130945931Y-140610556D02*
X130898312Y-140658176D01*
X130898312Y-140658176D02*
X130803074Y-140705795D01*
X130803074Y-140705795D02*
X130422122Y-140705795D01*
X130422122Y-140705795D02*
X130422122Y-139705795D01*
X130422122Y-139705795D02*
X130755455Y-139705795D01*
X130755455Y-139705795D02*
X130850693Y-139753414D01*
X130850693Y-139753414D02*
X130898312Y-139801033D01*
X130898312Y-139801033D02*
X130945931Y-139896271D01*
X130945931Y-139896271D02*
X130945931Y-139991509D01*
X130945931Y-139991509D02*
X130898312Y-140086747D01*
X130898312Y-140086747D02*
X130850693Y-140134366D01*
X130850693Y-140134366D02*
X130755455Y-140181985D01*
X130755455Y-140181985D02*
X130422122Y-140181985D01*
X131993550Y-140610556D02*
X131945931Y-140658176D01*
X131945931Y-140658176D02*
X131803074Y-140705795D01*
X131803074Y-140705795D02*
X131707836Y-140705795D01*
X131707836Y-140705795D02*
X131564979Y-140658176D01*
X131564979Y-140658176D02*
X131469741Y-140562937D01*
X131469741Y-140562937D02*
X131422122Y-140467699D01*
X131422122Y-140467699D02*
X131374503Y-140277223D01*
X131374503Y-140277223D02*
X131374503Y-140134366D01*
X131374503Y-140134366D02*
X131422122Y-139943890D01*
X131422122Y-139943890D02*
X131469741Y-139848652D01*
X131469741Y-139848652D02*
X131564979Y-139753414D01*
X131564979Y-139753414D02*
X131707836Y-139705795D01*
X131707836Y-139705795D02*
X131803074Y-139705795D01*
X131803074Y-139705795D02*
X131945931Y-139753414D01*
X131945931Y-139753414D02*
X131993550Y-139801033D01*
X132184027Y-140801033D02*
X132945931Y-140801033D01*
X133755455Y-140705795D02*
X133422122Y-140229604D01*
X133184027Y-140705795D02*
X133184027Y-139705795D01*
X133184027Y-139705795D02*
X133564979Y-139705795D01*
X133564979Y-139705795D02*
X133660217Y-139753414D01*
X133660217Y-139753414D02*
X133707836Y-139801033D01*
X133707836Y-139801033D02*
X133755455Y-139896271D01*
X133755455Y-139896271D02*
X133755455Y-140039128D01*
X133755455Y-140039128D02*
X133707836Y-140134366D01*
X133707836Y-140134366D02*
X133660217Y-140181985D01*
X133660217Y-140181985D02*
X133564979Y-140229604D01*
X133564979Y-140229604D02*
X133184027Y-140229604D01*
X134707836Y-140705795D02*
X134136408Y-140705795D01*
X134422122Y-140705795D02*
X134422122Y-139705795D01*
X134422122Y-139705795D02*
X134326884Y-139848652D01*
X134326884Y-139848652D02*
X134231646Y-139943890D01*
X134231646Y-139943890D02*
X134136408Y-139991509D01*
X127833333Y-106859580D02*
X127785714Y-106907200D01*
X127785714Y-106907200D02*
X127642857Y-106954819D01*
X127642857Y-106954819D02*
X127547619Y-106954819D01*
X127547619Y-106954819D02*
X127404762Y-106907200D01*
X127404762Y-106907200D02*
X127309524Y-106811961D01*
X127309524Y-106811961D02*
X127261905Y-106716723D01*
X127261905Y-106716723D02*
X127214286Y-106526247D01*
X127214286Y-106526247D02*
X127214286Y-106383390D01*
X127214286Y-106383390D02*
X127261905Y-106192914D01*
X127261905Y-106192914D02*
X127309524Y-106097676D01*
X127309524Y-106097676D02*
X127404762Y-106002438D01*
X127404762Y-106002438D02*
X127547619Y-105954819D01*
X127547619Y-105954819D02*
X127642857Y-105954819D01*
X127642857Y-105954819D02*
X127785714Y-106002438D01*
X127785714Y-106002438D02*
X127833333Y-106050057D01*
X128166667Y-105954819D02*
X128785714Y-105954819D01*
X128785714Y-105954819D02*
X128452381Y-106335771D01*
X128452381Y-106335771D02*
X128595238Y-106335771D01*
X128595238Y-106335771D02*
X128690476Y-106383390D01*
X128690476Y-106383390D02*
X128738095Y-106431009D01*
X128738095Y-106431009D02*
X128785714Y-106526247D01*
X128785714Y-106526247D02*
X128785714Y-106764342D01*
X128785714Y-106764342D02*
X128738095Y-106859580D01*
X128738095Y-106859580D02*
X128690476Y-106907200D01*
X128690476Y-106907200D02*
X128595238Y-106954819D01*
X128595238Y-106954819D02*
X128309524Y-106954819D01*
X128309524Y-106954819D02*
X128214286Y-106907200D01*
X128214286Y-106907200D02*
X128166667Y-106859580D01*
X61359580Y-99166666D02*
X61407200Y-99214285D01*
X61407200Y-99214285D02*
X61454819Y-99357142D01*
X61454819Y-99357142D02*
X61454819Y-99452380D01*
X61454819Y-99452380D02*
X61407200Y-99595237D01*
X61407200Y-99595237D02*
X61311961Y-99690475D01*
X61311961Y-99690475D02*
X61216723Y-99738094D01*
X61216723Y-99738094D02*
X61026247Y-99785713D01*
X61026247Y-99785713D02*
X60883390Y-99785713D01*
X60883390Y-99785713D02*
X60692914Y-99738094D01*
X60692914Y-99738094D02*
X60597676Y-99690475D01*
X60597676Y-99690475D02*
X60502438Y-99595237D01*
X60502438Y-99595237D02*
X60454819Y-99452380D01*
X60454819Y-99452380D02*
X60454819Y-99357142D01*
X60454819Y-99357142D02*
X60502438Y-99214285D01*
X60502438Y-99214285D02*
X60550057Y-99166666D01*
X60550057Y-98785713D02*
X60502438Y-98738094D01*
X60502438Y-98738094D02*
X60454819Y-98642856D01*
X60454819Y-98642856D02*
X60454819Y-98404761D01*
X60454819Y-98404761D02*
X60502438Y-98309523D01*
X60502438Y-98309523D02*
X60550057Y-98261904D01*
X60550057Y-98261904D02*
X60645295Y-98214285D01*
X60645295Y-98214285D02*
X60740533Y-98214285D01*
X60740533Y-98214285D02*
X60883390Y-98261904D01*
X60883390Y-98261904D02*
X61454819Y-98833332D01*
X61454819Y-98833332D02*
X61454819Y-98214285D01*
X127833333Y-110359580D02*
X127785714Y-110407200D01*
X127785714Y-110407200D02*
X127642857Y-110454819D01*
X127642857Y-110454819D02*
X127547619Y-110454819D01*
X127547619Y-110454819D02*
X127404762Y-110407200D01*
X127404762Y-110407200D02*
X127309524Y-110311961D01*
X127309524Y-110311961D02*
X127261905Y-110216723D01*
X127261905Y-110216723D02*
X127214286Y-110026247D01*
X127214286Y-110026247D02*
X127214286Y-109883390D01*
X127214286Y-109883390D02*
X127261905Y-109692914D01*
X127261905Y-109692914D02*
X127309524Y-109597676D01*
X127309524Y-109597676D02*
X127404762Y-109502438D01*
X127404762Y-109502438D02*
X127547619Y-109454819D01*
X127547619Y-109454819D02*
X127642857Y-109454819D01*
X127642857Y-109454819D02*
X127785714Y-109502438D01*
X127785714Y-109502438D02*
X127833333Y-109550057D01*
X128690476Y-109788152D02*
X128690476Y-110454819D01*
X128452381Y-109407200D02*
X128214286Y-110121485D01*
X128214286Y-110121485D02*
X128833333Y-110121485D01*
X58074819Y-147071428D02*
X58789104Y-147071428D01*
X58789104Y-147071428D02*
X58931961Y-147119047D01*
X58931961Y-147119047D02*
X59027200Y-147214285D01*
X59027200Y-147214285D02*
X59074819Y-147357142D01*
X59074819Y-147357142D02*
X59074819Y-147452380D01*
X58074819Y-146738094D02*
X59074819Y-146404761D01*
X59074819Y-146404761D02*
X58074819Y-146071428D01*
X58551009Y-145404761D02*
X58598628Y-145261904D01*
X58598628Y-145261904D02*
X58646247Y-145214285D01*
X58646247Y-145214285D02*
X58741485Y-145166666D01*
X58741485Y-145166666D02*
X58884342Y-145166666D01*
X58884342Y-145166666D02*
X58979580Y-145214285D01*
X58979580Y-145214285D02*
X59027200Y-145261904D01*
X59027200Y-145261904D02*
X59074819Y-145357142D01*
X59074819Y-145357142D02*
X59074819Y-145738094D01*
X59074819Y-145738094D02*
X58074819Y-145738094D01*
X58074819Y-145738094D02*
X58074819Y-145404761D01*
X58074819Y-145404761D02*
X58122438Y-145309523D01*
X58122438Y-145309523D02*
X58170057Y-145261904D01*
X58170057Y-145261904D02*
X58265295Y-145214285D01*
X58265295Y-145214285D02*
X58360533Y-145214285D01*
X58360533Y-145214285D02*
X58455771Y-145261904D01*
X58455771Y-145261904D02*
X58503390Y-145309523D01*
X58503390Y-145309523D02*
X58551009Y-145404761D01*
X58551009Y-145404761D02*
X58551009Y-145738094D01*
X58789104Y-144785713D02*
X58789104Y-144309523D01*
X59074819Y-144880951D02*
X58074819Y-144547618D01*
X58074819Y-144547618D02*
X59074819Y-144214285D01*
X58074819Y-144023808D02*
X58074819Y-143452380D01*
X59074819Y-143738094D02*
X58074819Y-143738094D01*
X59074819Y-142595237D02*
X59074819Y-143166665D01*
X59074819Y-142880951D02*
X58074819Y-142880951D01*
X58074819Y-142880951D02*
X58217676Y-142976189D01*
X58217676Y-142976189D02*
X58312914Y-143071427D01*
X58312914Y-143071427D02*
X58360533Y-143166665D01*
X60859580Y-112666666D02*
X60907200Y-112714285D01*
X60907200Y-112714285D02*
X60954819Y-112857142D01*
X60954819Y-112857142D02*
X60954819Y-112952380D01*
X60954819Y-112952380D02*
X60907200Y-113095237D01*
X60907200Y-113095237D02*
X60811961Y-113190475D01*
X60811961Y-113190475D02*
X60716723Y-113238094D01*
X60716723Y-113238094D02*
X60526247Y-113285713D01*
X60526247Y-113285713D02*
X60383390Y-113285713D01*
X60383390Y-113285713D02*
X60192914Y-113238094D01*
X60192914Y-113238094D02*
X60097676Y-113190475D01*
X60097676Y-113190475D02*
X60002438Y-113095237D01*
X60002438Y-113095237D02*
X59954819Y-112952380D01*
X59954819Y-112952380D02*
X59954819Y-112857142D01*
X59954819Y-112857142D02*
X60002438Y-112714285D01*
X60002438Y-112714285D02*
X60050057Y-112666666D01*
X60954819Y-111714285D02*
X60954819Y-112285713D01*
X60954819Y-111999999D02*
X59954819Y-111999999D01*
X59954819Y-111999999D02*
X60097676Y-112095237D01*
X60097676Y-112095237D02*
X60192914Y-112190475D01*
X60192914Y-112190475D02*
X60240533Y-112285713D01*
D10*
X63492122Y-112740976D02*
X63492122Y-99930976D01*
X66252122Y-99930976D02*
X63492122Y-99930976D01*
X66252122Y-112740976D02*
X63492122Y-112740976D01*
X66252122Y-112740976D02*
X66252122Y-99930976D01*
X66252122Y-114010976D02*
X66252122Y-115390976D01*
X66252122Y-115390976D02*
X64872122Y-115390976D01*
X95752122Y-112850976D02*
X95752122Y-111470976D01*
X97132122Y-112850976D02*
X95752122Y-112850976D01*
X98402122Y-110090976D02*
X111212122Y-110090976D01*
X98402122Y-112850976D02*
X98402122Y-110090976D01*
X98402122Y-112850976D02*
X111212122Y-112850976D01*
X111212122Y-112850976D02*
X111212122Y-110090976D01*
X136462122Y-99930976D02*
X137842122Y-99930976D01*
X136462122Y-101310976D02*
X136462122Y-99930976D01*
X136462122Y-102580976D02*
X136462122Y-115390976D01*
X136462122Y-102580976D02*
X139222122Y-102580976D01*
X136462122Y-115390976D02*
X139222122Y-115390976D01*
X139222122Y-102580976D02*
X139222122Y-115390976D01*
X72892122Y-144600976D02*
X72892122Y-143220976D01*
X74272122Y-144600976D02*
X72892122Y-144600976D01*
X75542122Y-141840976D02*
X88352122Y-141840976D01*
X75542122Y-144600976D02*
X75542122Y-141840976D01*
X75542122Y-144600976D02*
X88352122Y-144600976D01*
X88352122Y-144600976D02*
X88352122Y-141840976D01*
X130042122Y-141200976D02*
X131422122Y-141200976D01*
X130042122Y-142580976D02*
X130042122Y-141200976D01*
X130042122Y-143850976D02*
X130042122Y-146500976D01*
X130042122Y-143850976D02*
X132802122Y-143850976D01*
X130042122Y-146500976D02*
X132802122Y-146500976D01*
X132802122Y-143850976D02*
X132802122Y-146500976D01*
X131298752Y-106265000D02*
X130776248Y-106265000D01*
X131298752Y-107735000D02*
X130776248Y-107735000D01*
X60265000Y-102223752D02*
X60265000Y-101701248D01*
X61735000Y-102223752D02*
X61735000Y-101701248D01*
X131261252Y-108765000D02*
X130738748Y-108765000D01*
X131261252Y-110235000D02*
X130738748Y-110235000D01*
X59620000Y-146380000D02*
X59620000Y-145000000D01*
X61000000Y-146380000D02*
X59620000Y-146380000D01*
X62270000Y-143620000D02*
X64920000Y-143620000D01*
X62270000Y-146380000D02*
X62270000Y-143620000D01*
X62270000Y-146380000D02*
X64920000Y-146380000D01*
X64920000Y-146380000D02*
X64920000Y-143620000D01*
X60265000Y-109723752D02*
X60265000Y-109201248D01*
X61735000Y-109723752D02*
X61735000Y-109201248D01*
M02*
