G04 #@! TF.GenerationSoftware,KiCad,Pcbnew,9.0.4*
G04 #@! TF.CreationDate,2025-08-30T14:04:45-07:00*
G04 #@! TF.ProjectId,romi_board_bottom,726f6d69-5f62-46f6-9172-645f626f7474,rev?*
G04 #@! TF.SameCoordinates,Original*
G04 #@! TF.FileFunction,Soldermask,Bot*
G04 #@! TF.FilePolarity,Negative*
%FSLAX46Y46*%
G04 Gerber Fmt 4.6, Leading zero omitted, Abs format (unit mm)*
G04 Created by KiCad (PCBNEW 9.0.4) date 2025-08-30 14:04:45*
%MOMM*%
%LPD*%
G01*
G04 APERTURE LIST*
G04 APERTURE END LIST*
G36*
X56695834Y-147875923D02*
G01*
X56889993Y-147939009D01*
X57071893Y-148031691D01*
X57237054Y-148151688D01*
X57381410Y-148296044D01*
X57501407Y-148461205D01*
X57594089Y-148643105D01*
X57657175Y-148837264D01*
X57689111Y-149038901D01*
X57689111Y-149243051D01*
X57657175Y-149444688D01*
X57594089Y-149638847D01*
X57501407Y-149820747D01*
X57381410Y-149985908D01*
X57237054Y-150130264D01*
X57071893Y-150250261D01*
X56889993Y-150342943D01*
X56695834Y-150406029D01*
X56494197Y-150437965D01*
X56290047Y-150437965D01*
X56088410Y-150406029D01*
X55894251Y-150342943D01*
X55712351Y-150250261D01*
X55547190Y-150130264D01*
X55402834Y-149985908D01*
X55282837Y-149820747D01*
X55190155Y-149638847D01*
X55127069Y-149444688D01*
X55095133Y-149243051D01*
X55095133Y-149038901D01*
X55127069Y-148837264D01*
X55190155Y-148643105D01*
X55282837Y-148461205D01*
X55402834Y-148296044D01*
X55547190Y-148151688D01*
X55712351Y-148031691D01*
X55894251Y-147939009D01*
X56088410Y-147875923D01*
X56290047Y-147843987D01*
X56494197Y-147843987D01*
X56695834Y-147875923D01*
G37*
G36*
X146695834Y-147875923D02*
G01*
X146889993Y-147939009D01*
X147071893Y-148031691D01*
X147237054Y-148151688D01*
X147381410Y-148296044D01*
X147501407Y-148461205D01*
X147594089Y-148643105D01*
X147657175Y-148837264D01*
X147689111Y-149038901D01*
X147689111Y-149243051D01*
X147657175Y-149444688D01*
X147594089Y-149638847D01*
X147501407Y-149820747D01*
X147381410Y-149985908D01*
X147237054Y-150130264D01*
X147071893Y-150250261D01*
X146889993Y-150342943D01*
X146695834Y-150406029D01*
X146494197Y-150437965D01*
X146290047Y-150437965D01*
X146088410Y-150406029D01*
X145894251Y-150342943D01*
X145712351Y-150250261D01*
X145547190Y-150130264D01*
X145402834Y-149985908D01*
X145282837Y-149820747D01*
X145190155Y-149638847D01*
X145127069Y-149444688D01*
X145095133Y-149243051D01*
X145095133Y-149038901D01*
X145127069Y-148837264D01*
X145190155Y-148643105D01*
X145282837Y-148461205D01*
X145402834Y-148296044D01*
X145547190Y-148151688D01*
X145712351Y-148031691D01*
X145894251Y-147939009D01*
X146088410Y-147875923D01*
X146290047Y-147843987D01*
X146494197Y-147843987D01*
X146695834Y-147875923D01*
G37*
G36*
X47764511Y-141045085D02*
G01*
X47776118Y-141045085D01*
X47821478Y-141054107D01*
X47919717Y-141069667D01*
X47951312Y-141079933D01*
X47980114Y-141085662D01*
X48020758Y-141102497D01*
X48078001Y-141121097D01*
X48131634Y-141148424D01*
X48172274Y-141165258D01*
X48196686Y-141181569D01*
X48226289Y-141196653D01*
X48306762Y-141255120D01*
X48345213Y-141280812D01*
X48353419Y-141289018D01*
X48360934Y-141294478D01*
X48478619Y-141412163D01*
X48484078Y-141419677D01*
X48492286Y-141427885D01*
X48517980Y-141466340D01*
X48576444Y-141546808D01*
X48591526Y-141576408D01*
X48607840Y-141600824D01*
X48624675Y-141641468D01*
X48652000Y-141695096D01*
X48670597Y-141752332D01*
X48687436Y-141792984D01*
X48693166Y-141821790D01*
X48703430Y-141853380D01*
X48718988Y-141951608D01*
X48728013Y-141996980D01*
X48728839Y-142013808D01*
X48729851Y-142020193D01*
X48732638Y-142091134D01*
X48733122Y-142100976D01*
X48733122Y-146160976D01*
X48732638Y-146170821D01*
X48729851Y-146241758D01*
X48728839Y-146248142D01*
X48728013Y-146264972D01*
X48718987Y-146310347D01*
X48703430Y-146408571D01*
X48693166Y-146440158D01*
X48687436Y-146468968D01*
X48670595Y-146509623D01*
X48652000Y-146566855D01*
X48624678Y-146620477D01*
X48607840Y-146661128D01*
X48591523Y-146685546D01*
X48576444Y-146715143D01*
X48517989Y-146795599D01*
X48492286Y-146834067D01*
X48484076Y-146842276D01*
X48478619Y-146849788D01*
X48360934Y-146967473D01*
X48353422Y-146972930D01*
X48345213Y-146981140D01*
X48306745Y-147006843D01*
X48226289Y-147065298D01*
X48196692Y-147080377D01*
X48172274Y-147096694D01*
X48131623Y-147113532D01*
X48078001Y-147140854D01*
X48020769Y-147159449D01*
X47980114Y-147176290D01*
X47951304Y-147182020D01*
X47919717Y-147192284D01*
X47821488Y-147207842D01*
X47776118Y-147216867D01*
X47764511Y-147216867D01*
X47755337Y-147218320D01*
X47588907Y-147218320D01*
X47579733Y-147216867D01*
X47568126Y-147216867D01*
X47522757Y-147207842D01*
X47424526Y-147192284D01*
X47392936Y-147182020D01*
X47364130Y-147176290D01*
X47323478Y-147159451D01*
X47266242Y-147140854D01*
X47212614Y-147113529D01*
X47171970Y-147096694D01*
X47147554Y-147080380D01*
X47117954Y-147065298D01*
X47037486Y-147006834D01*
X46999031Y-146981140D01*
X46990823Y-146972932D01*
X46983309Y-146967473D01*
X46865624Y-146849788D01*
X46860164Y-146842273D01*
X46851958Y-146834067D01*
X46826266Y-146795616D01*
X46767799Y-146715143D01*
X46752715Y-146685540D01*
X46736404Y-146661128D01*
X46719570Y-146620488D01*
X46692243Y-146566855D01*
X46673643Y-146509612D01*
X46656808Y-146468968D01*
X46651079Y-146440166D01*
X46640813Y-146408571D01*
X46625251Y-146310322D01*
X46616231Y-146264972D01*
X46615404Y-146248151D01*
X46614392Y-146241758D01*
X46611604Y-146170806D01*
X46611122Y-146160976D01*
X46611122Y-142100976D01*
X46611604Y-142091149D01*
X46614392Y-142020193D01*
X46615404Y-142013798D01*
X46616231Y-141996980D01*
X46625251Y-141951632D01*
X46640813Y-141853380D01*
X46651079Y-141821783D01*
X46656808Y-141792984D01*
X46673642Y-141752343D01*
X46692243Y-141695096D01*
X46719572Y-141641458D01*
X46736404Y-141600824D01*
X46752713Y-141576414D01*
X46767799Y-141546808D01*
X46826274Y-141466323D01*
X46851958Y-141427885D01*
X46860161Y-141419681D01*
X46865624Y-141412163D01*
X46983309Y-141294478D01*
X46990827Y-141289015D01*
X46999031Y-141280812D01*
X47037469Y-141255128D01*
X47117954Y-141196653D01*
X47147560Y-141181567D01*
X47171970Y-141165258D01*
X47212604Y-141148426D01*
X47266242Y-141121097D01*
X47323489Y-141102496D01*
X47364130Y-141085662D01*
X47392929Y-141079933D01*
X47424526Y-141069667D01*
X47522767Y-141054107D01*
X47568126Y-141045085D01*
X47579733Y-141045085D01*
X47588907Y-141043632D01*
X47755337Y-141043632D01*
X47764511Y-141045085D01*
G37*
G36*
X131683668Y-144258773D02*
G01*
X131846850Y-144326365D01*
X131993710Y-144424494D01*
X132118604Y-144549388D01*
X132216733Y-144696248D01*
X132284325Y-144859430D01*
X132318783Y-145032663D01*
X132318783Y-145209289D01*
X132284325Y-145382522D01*
X132216733Y-145545704D01*
X132118604Y-145692564D01*
X131993710Y-145817458D01*
X131846850Y-145915587D01*
X131683668Y-145983179D01*
X131510435Y-146017637D01*
X131333809Y-146017637D01*
X131160576Y-145983179D01*
X130997394Y-145915587D01*
X130850534Y-145817458D01*
X130725640Y-145692564D01*
X130627511Y-145545704D01*
X130559919Y-145382522D01*
X130525461Y-145209289D01*
X130525461Y-145032663D01*
X130559919Y-144859430D01*
X130627511Y-144696248D01*
X130725640Y-144549388D01*
X130850534Y-144424494D01*
X130997394Y-144326365D01*
X131160576Y-144258773D01*
X131333809Y-144224315D01*
X131510435Y-144224315D01*
X131683668Y-144258773D01*
G37*
G36*
X61869517Y-144102882D02*
G01*
X61886062Y-144113938D01*
X61897118Y-144130483D01*
X61901000Y-144150000D01*
X61901000Y-145850000D01*
X61897118Y-145869517D01*
X61886062Y-145886062D01*
X61869517Y-145897118D01*
X61850000Y-145901000D01*
X60150000Y-145901000D01*
X60130483Y-145897118D01*
X60113938Y-145886062D01*
X60102882Y-145869517D01*
X60099000Y-145850000D01*
X60099000Y-144150000D01*
X60102882Y-144130483D01*
X60113938Y-144113938D01*
X60130483Y-144102882D01*
X60150000Y-144099000D01*
X61850000Y-144099000D01*
X61869517Y-144102882D01*
G37*
G36*
X63801546Y-144137797D02*
G01*
X63964728Y-144205389D01*
X64111588Y-144303518D01*
X64236482Y-144428412D01*
X64334611Y-144575272D01*
X64402203Y-144738454D01*
X64436661Y-144911687D01*
X64436661Y-145088313D01*
X64402203Y-145261546D01*
X64334611Y-145424728D01*
X64236482Y-145571588D01*
X64111588Y-145696482D01*
X63964728Y-145794611D01*
X63801546Y-145862203D01*
X63628313Y-145896661D01*
X63451687Y-145896661D01*
X63278454Y-145862203D01*
X63115272Y-145794611D01*
X62968412Y-145696482D01*
X62843518Y-145571588D01*
X62745389Y-145424728D01*
X62677797Y-145261546D01*
X62643339Y-145088313D01*
X62643339Y-144911687D01*
X62677797Y-144738454D01*
X62745389Y-144575272D01*
X62843518Y-144428412D01*
X62968412Y-144303518D01*
X63115272Y-144205389D01*
X63278454Y-144137797D01*
X63451687Y-144103339D01*
X63628313Y-144103339D01*
X63801546Y-144137797D01*
G37*
G36*
X75141639Y-142323858D02*
G01*
X75158184Y-142334914D01*
X75169240Y-142351459D01*
X75173122Y-142370976D01*
X75173122Y-144070976D01*
X75169240Y-144090493D01*
X75158184Y-144107038D01*
X75141639Y-144118094D01*
X75122122Y-144121976D01*
X73422122Y-144121976D01*
X73402605Y-144118094D01*
X73386060Y-144107038D01*
X73375004Y-144090493D01*
X73371122Y-144070976D01*
X73371122Y-142370976D01*
X73375004Y-142351459D01*
X73386060Y-142334914D01*
X73402605Y-142323858D01*
X73422122Y-142319976D01*
X75122122Y-142319976D01*
X75141639Y-142323858D01*
G37*
G36*
X77073668Y-142358773D02*
G01*
X77236850Y-142426365D01*
X77383710Y-142524494D01*
X77508604Y-142649388D01*
X77606733Y-142796248D01*
X77674325Y-142959430D01*
X77708783Y-143132663D01*
X77708783Y-143309289D01*
X77674325Y-143482522D01*
X77606733Y-143645704D01*
X77508604Y-143792564D01*
X77383710Y-143917458D01*
X77236850Y-144015587D01*
X77073668Y-144083179D01*
X76900435Y-144117637D01*
X76723809Y-144117637D01*
X76550576Y-144083179D01*
X76387394Y-144015587D01*
X76240534Y-143917458D01*
X76115640Y-143792564D01*
X76017511Y-143645704D01*
X75949919Y-143482522D01*
X75915461Y-143309289D01*
X75915461Y-143132663D01*
X75949919Y-142959430D01*
X76017511Y-142796248D01*
X76115640Y-142649388D01*
X76240534Y-142524494D01*
X76387394Y-142426365D01*
X76550576Y-142358773D01*
X76723809Y-142324315D01*
X76900435Y-142324315D01*
X77073668Y-142358773D01*
G37*
G36*
X79613668Y-142358773D02*
G01*
X79776850Y-142426365D01*
X79923710Y-142524494D01*
X80048604Y-142649388D01*
X80146733Y-142796248D01*
X80214325Y-142959430D01*
X80248783Y-143132663D01*
X80248783Y-143309289D01*
X80214325Y-143482522D01*
X80146733Y-143645704D01*
X80048604Y-143792564D01*
X79923710Y-143917458D01*
X79776850Y-144015587D01*
X79613668Y-144083179D01*
X79440435Y-144117637D01*
X79263809Y-144117637D01*
X79090576Y-144083179D01*
X78927394Y-144015587D01*
X78780534Y-143917458D01*
X78655640Y-143792564D01*
X78557511Y-143645704D01*
X78489919Y-143482522D01*
X78455461Y-143309289D01*
X78455461Y-143132663D01*
X78489919Y-142959430D01*
X78557511Y-142796248D01*
X78655640Y-142649388D01*
X78780534Y-142524494D01*
X78927394Y-142426365D01*
X79090576Y-142358773D01*
X79263809Y-142324315D01*
X79440435Y-142324315D01*
X79613668Y-142358773D01*
G37*
G36*
X82153668Y-142358773D02*
G01*
X82316850Y-142426365D01*
X82463710Y-142524494D01*
X82588604Y-142649388D01*
X82686733Y-142796248D01*
X82754325Y-142959430D01*
X82788783Y-143132663D01*
X82788783Y-143309289D01*
X82754325Y-143482522D01*
X82686733Y-143645704D01*
X82588604Y-143792564D01*
X82463710Y-143917458D01*
X82316850Y-144015587D01*
X82153668Y-144083179D01*
X81980435Y-144117637D01*
X81803809Y-144117637D01*
X81630576Y-144083179D01*
X81467394Y-144015587D01*
X81320534Y-143917458D01*
X81195640Y-143792564D01*
X81097511Y-143645704D01*
X81029919Y-143482522D01*
X80995461Y-143309289D01*
X80995461Y-143132663D01*
X81029919Y-142959430D01*
X81097511Y-142796248D01*
X81195640Y-142649388D01*
X81320534Y-142524494D01*
X81467394Y-142426365D01*
X81630576Y-142358773D01*
X81803809Y-142324315D01*
X81980435Y-142324315D01*
X82153668Y-142358773D01*
G37*
G36*
X84693668Y-142358773D02*
G01*
X84856850Y-142426365D01*
X85003710Y-142524494D01*
X85128604Y-142649388D01*
X85226733Y-142796248D01*
X85294325Y-142959430D01*
X85328783Y-143132663D01*
X85328783Y-143309289D01*
X85294325Y-143482522D01*
X85226733Y-143645704D01*
X85128604Y-143792564D01*
X85003710Y-143917458D01*
X84856850Y-144015587D01*
X84693668Y-144083179D01*
X84520435Y-144117637D01*
X84343809Y-144117637D01*
X84170576Y-144083179D01*
X84007394Y-144015587D01*
X83860534Y-143917458D01*
X83735640Y-143792564D01*
X83637511Y-143645704D01*
X83569919Y-143482522D01*
X83535461Y-143309289D01*
X83535461Y-143132663D01*
X83569919Y-142959430D01*
X83637511Y-142796248D01*
X83735640Y-142649388D01*
X83860534Y-142524494D01*
X84007394Y-142426365D01*
X84170576Y-142358773D01*
X84343809Y-142324315D01*
X84520435Y-142324315D01*
X84693668Y-142358773D01*
G37*
G36*
X87233668Y-142358773D02*
G01*
X87396850Y-142426365D01*
X87543710Y-142524494D01*
X87668604Y-142649388D01*
X87766733Y-142796248D01*
X87834325Y-142959430D01*
X87868783Y-143132663D01*
X87868783Y-143309289D01*
X87834325Y-143482522D01*
X87766733Y-143645704D01*
X87668604Y-143792564D01*
X87543710Y-143917458D01*
X87396850Y-144015587D01*
X87233668Y-144083179D01*
X87060435Y-144117637D01*
X86883809Y-144117637D01*
X86710576Y-144083179D01*
X86547394Y-144015587D01*
X86400534Y-143917458D01*
X86275640Y-143792564D01*
X86177511Y-143645704D01*
X86109919Y-143482522D01*
X86075461Y-143309289D01*
X86075461Y-143132663D01*
X86109919Y-142959430D01*
X86177511Y-142796248D01*
X86275640Y-142649388D01*
X86400534Y-142524494D01*
X86547394Y-142426365D01*
X86710576Y-142358773D01*
X86883809Y-142324315D01*
X87060435Y-142324315D01*
X87233668Y-142358773D01*
G37*
G36*
X132291639Y-141683858D02*
G01*
X132308184Y-141694914D01*
X132319240Y-141711459D01*
X132323122Y-141730976D01*
X132323122Y-143430976D01*
X132319240Y-143450493D01*
X132308184Y-143467038D01*
X132291639Y-143478094D01*
X132272122Y-143481976D01*
X130572122Y-143481976D01*
X130552605Y-143478094D01*
X130536060Y-143467038D01*
X130525004Y-143450493D01*
X130521122Y-143430976D01*
X130521122Y-141730976D01*
X130525004Y-141711459D01*
X130536060Y-141694914D01*
X130552605Y-141683858D01*
X130572122Y-141679976D01*
X132272122Y-141679976D01*
X132291639Y-141683858D01*
G37*
G36*
X76903183Y-133883084D02*
G01*
X77236747Y-133959217D01*
X77559689Y-134072220D01*
X77867948Y-134220669D01*
X78157648Y-134402700D01*
X78425145Y-134616022D01*
X78667076Y-134857953D01*
X78880398Y-135125450D01*
X79062429Y-135415150D01*
X79210878Y-135723409D01*
X79323881Y-136046351D01*
X79400014Y-136379915D01*
X79438322Y-136719905D01*
X79438322Y-137062047D01*
X79400014Y-137402037D01*
X79323881Y-137735601D01*
X79210878Y-138058543D01*
X79062429Y-138366802D01*
X78880398Y-138656502D01*
X78667076Y-138923999D01*
X78425145Y-139165930D01*
X78157648Y-139379252D01*
X77867948Y-139561283D01*
X77559689Y-139709732D01*
X77236747Y-139822735D01*
X76903183Y-139898868D01*
X76563193Y-139937176D01*
X76221051Y-139937176D01*
X75881061Y-139898868D01*
X75547497Y-139822735D01*
X75224555Y-139709732D01*
X74916296Y-139561283D01*
X74626596Y-139379252D01*
X74359099Y-139165930D01*
X74117168Y-138923999D01*
X73903846Y-138656502D01*
X73721815Y-138366802D01*
X73573366Y-138058543D01*
X73460363Y-137735601D01*
X73384230Y-137402037D01*
X73345922Y-137062047D01*
X73345922Y-136719905D01*
X73384230Y-136379915D01*
X73460363Y-136046351D01*
X73573366Y-135723409D01*
X73721815Y-135415150D01*
X73903846Y-135125450D01*
X74117168Y-134857953D01*
X74359099Y-134616022D01*
X74626596Y-134402700D01*
X74916296Y-134220669D01*
X75224555Y-134072220D01*
X75547497Y-133959217D01*
X75881061Y-133883084D01*
X76221051Y-133844776D01*
X76563193Y-133844776D01*
X76903183Y-133883084D01*
G37*
G36*
X126903183Y-133883084D02*
G01*
X127236747Y-133959217D01*
X127559689Y-134072220D01*
X127867948Y-134220669D01*
X128157648Y-134402700D01*
X128425145Y-134616022D01*
X128667076Y-134857953D01*
X128880398Y-135125450D01*
X129062429Y-135415150D01*
X129210878Y-135723409D01*
X129323881Y-136046351D01*
X129400014Y-136379915D01*
X129438322Y-136719905D01*
X129438322Y-137062047D01*
X129400014Y-137402037D01*
X129323881Y-137735601D01*
X129210878Y-138058543D01*
X129062429Y-138366802D01*
X128880398Y-138656502D01*
X128667076Y-138923999D01*
X128425145Y-139165930D01*
X128157648Y-139379252D01*
X127867948Y-139561283D01*
X127559689Y-139709732D01*
X127236747Y-139822735D01*
X126903183Y-139898868D01*
X126563193Y-139937176D01*
X126221051Y-139937176D01*
X125881061Y-139898868D01*
X125547497Y-139822735D01*
X125224555Y-139709732D01*
X124916296Y-139561283D01*
X124626596Y-139379252D01*
X124359099Y-139165930D01*
X124117168Y-138923999D01*
X123903846Y-138656502D01*
X123721815Y-138366802D01*
X123573366Y-138058543D01*
X123460363Y-137735601D01*
X123384230Y-137402037D01*
X123345922Y-137062047D01*
X123345922Y-136719905D01*
X123384230Y-136379915D01*
X123460363Y-136046351D01*
X123573366Y-135723409D01*
X123721815Y-135415150D01*
X123903846Y-135125450D01*
X124117168Y-134857953D01*
X124359099Y-134616022D01*
X124626596Y-134402700D01*
X124916296Y-134220669D01*
X125224555Y-134072220D01*
X125547497Y-133959217D01*
X125881061Y-133883084D01*
X126221051Y-133844776D01*
X126563193Y-133844776D01*
X126903183Y-133883084D01*
G37*
G36*
X47764511Y-126545085D02*
G01*
X47776118Y-126545085D01*
X47821478Y-126554107D01*
X47919717Y-126569667D01*
X47951312Y-126579933D01*
X47980114Y-126585662D01*
X48020758Y-126602497D01*
X48078001Y-126621097D01*
X48131634Y-126648424D01*
X48172274Y-126665258D01*
X48196686Y-126681569D01*
X48226289Y-126696653D01*
X48306762Y-126755120D01*
X48345213Y-126780812D01*
X48353419Y-126789018D01*
X48360934Y-126794478D01*
X48478619Y-126912163D01*
X48484078Y-126919677D01*
X48492286Y-126927885D01*
X48517980Y-126966340D01*
X48576444Y-127046808D01*
X48591526Y-127076408D01*
X48607840Y-127100824D01*
X48624675Y-127141468D01*
X48652000Y-127195096D01*
X48670597Y-127252332D01*
X48687436Y-127292984D01*
X48693166Y-127321790D01*
X48703430Y-127353380D01*
X48718988Y-127451608D01*
X48728013Y-127496980D01*
X48728839Y-127513808D01*
X48729851Y-127520193D01*
X48732638Y-127591134D01*
X48733122Y-127600976D01*
X48733122Y-131660976D01*
X48732638Y-131670821D01*
X48729851Y-131741758D01*
X48728839Y-131748142D01*
X48728013Y-131764972D01*
X48718987Y-131810347D01*
X48703430Y-131908571D01*
X48693166Y-131940158D01*
X48687436Y-131968968D01*
X48670595Y-132009623D01*
X48652000Y-132066855D01*
X48624678Y-132120477D01*
X48607840Y-132161128D01*
X48591523Y-132185546D01*
X48576444Y-132215143D01*
X48517989Y-132295599D01*
X48492286Y-132334067D01*
X48484076Y-132342276D01*
X48478619Y-132349788D01*
X48360934Y-132467473D01*
X48353422Y-132472930D01*
X48345213Y-132481140D01*
X48306745Y-132506843D01*
X48226289Y-132565298D01*
X48196692Y-132580377D01*
X48172274Y-132596694D01*
X48131623Y-132613532D01*
X48078001Y-132640854D01*
X48020769Y-132659449D01*
X47980114Y-132676290D01*
X47951304Y-132682020D01*
X47919717Y-132692284D01*
X47821488Y-132707842D01*
X47776118Y-132716867D01*
X47764511Y-132716867D01*
X47755337Y-132718320D01*
X47588907Y-132718320D01*
X47579733Y-132716867D01*
X47568126Y-132716867D01*
X47522757Y-132707842D01*
X47424526Y-132692284D01*
X47392936Y-132682020D01*
X47364130Y-132676290D01*
X47323478Y-132659451D01*
X47266242Y-132640854D01*
X47212614Y-132613529D01*
X47171970Y-132596694D01*
X47147554Y-132580380D01*
X47117954Y-132565298D01*
X47037486Y-132506834D01*
X46999031Y-132481140D01*
X46990823Y-132472932D01*
X46983309Y-132467473D01*
X46865624Y-132349788D01*
X46860164Y-132342273D01*
X46851958Y-132334067D01*
X46826266Y-132295616D01*
X46767799Y-132215143D01*
X46752715Y-132185540D01*
X46736404Y-132161128D01*
X46719570Y-132120488D01*
X46692243Y-132066855D01*
X46673643Y-132009612D01*
X46656808Y-131968968D01*
X46651079Y-131940166D01*
X46640813Y-131908571D01*
X46625251Y-131810322D01*
X46616231Y-131764972D01*
X46615404Y-131748151D01*
X46614392Y-131741758D01*
X46611604Y-131670806D01*
X46611122Y-131660976D01*
X46611122Y-127600976D01*
X46611604Y-127591149D01*
X46614392Y-127520193D01*
X46615404Y-127513798D01*
X46616231Y-127496980D01*
X46625251Y-127451632D01*
X46640813Y-127353380D01*
X46651079Y-127321783D01*
X46656808Y-127292984D01*
X46673642Y-127252343D01*
X46692243Y-127195096D01*
X46719572Y-127141458D01*
X46736404Y-127100824D01*
X46752713Y-127076414D01*
X46767799Y-127046808D01*
X46826274Y-126966323D01*
X46851958Y-126927885D01*
X46860161Y-126919681D01*
X46865624Y-126912163D01*
X46983309Y-126794478D01*
X46990827Y-126789015D01*
X46999031Y-126780812D01*
X47037469Y-126755128D01*
X47117954Y-126696653D01*
X47147560Y-126681567D01*
X47171970Y-126665258D01*
X47212604Y-126648426D01*
X47266242Y-126621097D01*
X47323489Y-126602496D01*
X47364130Y-126585662D01*
X47392929Y-126579933D01*
X47424526Y-126569667D01*
X47522767Y-126554107D01*
X47568126Y-126545085D01*
X47579733Y-126545085D01*
X47588907Y-126543632D01*
X47755337Y-126543632D01*
X47764511Y-126545085D01*
G37*
G36*
X56695834Y-123375923D02*
G01*
X56889993Y-123439009D01*
X57071893Y-123531691D01*
X57237054Y-123651688D01*
X57381410Y-123796044D01*
X57501407Y-123961205D01*
X57594089Y-124143105D01*
X57657175Y-124337264D01*
X57689111Y-124538901D01*
X57689111Y-124743051D01*
X57657175Y-124944688D01*
X57594089Y-125138847D01*
X57501407Y-125320747D01*
X57381410Y-125485908D01*
X57237054Y-125630264D01*
X57071893Y-125750261D01*
X56889993Y-125842943D01*
X56695834Y-125906029D01*
X56494197Y-125937965D01*
X56290047Y-125937965D01*
X56088410Y-125906029D01*
X55894251Y-125842943D01*
X55712351Y-125750261D01*
X55547190Y-125630264D01*
X55402834Y-125485908D01*
X55282837Y-125320747D01*
X55190155Y-125138847D01*
X55127069Y-124944688D01*
X55095133Y-124743051D01*
X55095133Y-124538901D01*
X55127069Y-124337264D01*
X55190155Y-124143105D01*
X55282837Y-123961205D01*
X55402834Y-123796044D01*
X55547190Y-123651688D01*
X55712351Y-123531691D01*
X55894251Y-123439009D01*
X56088410Y-123375923D01*
X56290047Y-123343987D01*
X56494197Y-123343987D01*
X56695834Y-123375923D01*
G37*
G36*
X146695834Y-123375923D02*
G01*
X146889993Y-123439009D01*
X147071893Y-123531691D01*
X147237054Y-123651688D01*
X147381410Y-123796044D01*
X147501407Y-123961205D01*
X147594089Y-124143105D01*
X147657175Y-124337264D01*
X147689111Y-124538901D01*
X147689111Y-124743051D01*
X147657175Y-124944688D01*
X147594089Y-125138847D01*
X147501407Y-125320747D01*
X147381410Y-125485908D01*
X147237054Y-125630264D01*
X147071893Y-125750261D01*
X146889993Y-125842943D01*
X146695834Y-125906029D01*
X146494197Y-125937965D01*
X146290047Y-125937965D01*
X146088410Y-125906029D01*
X145894251Y-125842943D01*
X145712351Y-125750261D01*
X145547190Y-125630264D01*
X145402834Y-125485908D01*
X145282837Y-125320747D01*
X145190155Y-125138847D01*
X145127069Y-124944688D01*
X145095133Y-124743051D01*
X145095133Y-124538901D01*
X145127069Y-124337264D01*
X145190155Y-124143105D01*
X145282837Y-123961205D01*
X145402834Y-123796044D01*
X145547190Y-123651688D01*
X145712351Y-123531691D01*
X145894251Y-123439009D01*
X146088410Y-123375923D01*
X146290047Y-123343987D01*
X146494197Y-123343987D01*
X146695834Y-123375923D01*
G37*
G36*
X73424511Y-109575085D02*
G01*
X73436118Y-109575085D01*
X73481478Y-109584107D01*
X73579717Y-109599667D01*
X73611312Y-109609933D01*
X73640114Y-109615662D01*
X73680758Y-109632497D01*
X73738001Y-109651097D01*
X73791634Y-109678424D01*
X73832274Y-109695258D01*
X73856686Y-109711569D01*
X73886289Y-109726653D01*
X73966762Y-109785120D01*
X74005213Y-109810812D01*
X74013419Y-109819018D01*
X74020934Y-109824478D01*
X74138619Y-109942163D01*
X74144078Y-109949677D01*
X74152286Y-109957885D01*
X74177980Y-109996340D01*
X74236444Y-110076808D01*
X74251526Y-110106408D01*
X74267840Y-110130824D01*
X74284675Y-110171468D01*
X74312000Y-110225096D01*
X74330597Y-110282332D01*
X74347436Y-110322984D01*
X74353166Y-110351790D01*
X74363430Y-110383380D01*
X74378988Y-110481608D01*
X74388013Y-110526980D01*
X74388839Y-110543808D01*
X74389851Y-110550193D01*
X74392638Y-110621134D01*
X74393122Y-110630976D01*
X74393122Y-114690976D01*
X74392638Y-114700821D01*
X74389851Y-114771758D01*
X74388839Y-114778142D01*
X74388013Y-114794972D01*
X74378987Y-114840347D01*
X74363430Y-114938571D01*
X74353166Y-114970158D01*
X74347436Y-114998968D01*
X74330595Y-115039623D01*
X74312000Y-115096855D01*
X74284678Y-115150477D01*
X74267840Y-115191128D01*
X74251523Y-115215546D01*
X74236444Y-115245143D01*
X74177989Y-115325599D01*
X74152286Y-115364067D01*
X74144076Y-115372276D01*
X74138619Y-115379788D01*
X74020934Y-115497473D01*
X74013422Y-115502930D01*
X74005213Y-115511140D01*
X73966745Y-115536843D01*
X73886289Y-115595298D01*
X73856692Y-115610377D01*
X73832274Y-115626694D01*
X73791623Y-115643532D01*
X73738001Y-115670854D01*
X73680769Y-115689449D01*
X73640114Y-115706290D01*
X73611304Y-115712020D01*
X73579717Y-115722284D01*
X73481488Y-115737842D01*
X73436118Y-115746867D01*
X73424511Y-115746867D01*
X73415337Y-115748320D01*
X73248907Y-115748320D01*
X73239733Y-115746867D01*
X73228126Y-115746867D01*
X73182757Y-115737842D01*
X73084526Y-115722284D01*
X73052936Y-115712020D01*
X73024130Y-115706290D01*
X72983478Y-115689451D01*
X72926242Y-115670854D01*
X72872614Y-115643529D01*
X72831970Y-115626694D01*
X72807554Y-115610380D01*
X72777954Y-115595298D01*
X72697486Y-115536834D01*
X72659031Y-115511140D01*
X72650823Y-115502932D01*
X72643309Y-115497473D01*
X72525624Y-115379788D01*
X72520164Y-115372273D01*
X72511958Y-115364067D01*
X72486266Y-115325616D01*
X72427799Y-115245143D01*
X72412715Y-115215540D01*
X72396404Y-115191128D01*
X72379570Y-115150488D01*
X72352243Y-115096855D01*
X72333643Y-115039612D01*
X72316808Y-114998968D01*
X72311079Y-114970166D01*
X72300813Y-114938571D01*
X72285251Y-114840322D01*
X72276231Y-114794972D01*
X72275404Y-114778151D01*
X72274392Y-114771758D01*
X72271604Y-114700806D01*
X72271122Y-114690976D01*
X72271122Y-110630976D01*
X72271604Y-110621149D01*
X72274392Y-110550193D01*
X72275404Y-110543798D01*
X72276231Y-110526980D01*
X72285251Y-110481632D01*
X72300813Y-110383380D01*
X72311079Y-110351783D01*
X72316808Y-110322984D01*
X72333642Y-110282343D01*
X72352243Y-110225096D01*
X72379572Y-110171458D01*
X72396404Y-110130824D01*
X72412713Y-110106414D01*
X72427799Y-110076808D01*
X72486274Y-109996323D01*
X72511958Y-109957885D01*
X72520161Y-109949681D01*
X72525624Y-109942163D01*
X72643309Y-109824478D01*
X72650827Y-109819015D01*
X72659031Y-109810812D01*
X72697469Y-109785128D01*
X72777954Y-109726653D01*
X72807560Y-109711567D01*
X72831970Y-109695258D01*
X72872604Y-109678426D01*
X72926242Y-109651097D01*
X72983489Y-109632496D01*
X73024130Y-109615662D01*
X73052929Y-109609933D01*
X73084526Y-109599667D01*
X73182767Y-109584107D01*
X73228126Y-109575085D01*
X73239733Y-109575085D01*
X73248907Y-109573632D01*
X73415337Y-109573632D01*
X73424511Y-109575085D01*
G37*
G36*
X65741639Y-113113858D02*
G01*
X65758184Y-113124914D01*
X65769240Y-113141459D01*
X65773122Y-113160976D01*
X65773122Y-114860976D01*
X65769240Y-114880493D01*
X65758184Y-114897038D01*
X65741639Y-114908094D01*
X65722122Y-114911976D01*
X64022122Y-114911976D01*
X64002605Y-114908094D01*
X63986060Y-114897038D01*
X63975004Y-114880493D01*
X63971122Y-114860976D01*
X63971122Y-113160976D01*
X63975004Y-113141459D01*
X63986060Y-113124914D01*
X64002605Y-113113858D01*
X64022122Y-113109976D01*
X65722122Y-113109976D01*
X65741639Y-113113858D01*
G37*
G36*
X138103668Y-113148773D02*
G01*
X138266850Y-113216365D01*
X138413710Y-113314494D01*
X138538604Y-113439388D01*
X138636733Y-113586248D01*
X138704325Y-113749430D01*
X138738783Y-113922663D01*
X138738783Y-114099289D01*
X138704325Y-114272522D01*
X138636733Y-114435704D01*
X138538604Y-114582564D01*
X138413710Y-114707458D01*
X138266850Y-114805587D01*
X138103668Y-114873179D01*
X137930435Y-114907637D01*
X137753809Y-114907637D01*
X137580576Y-114873179D01*
X137417394Y-114805587D01*
X137270534Y-114707458D01*
X137145640Y-114582564D01*
X137047511Y-114435704D01*
X136979919Y-114272522D01*
X136945461Y-114099289D01*
X136945461Y-113922663D01*
X136979919Y-113749430D01*
X137047511Y-113586248D01*
X137145640Y-113439388D01*
X137270534Y-113314494D01*
X137417394Y-113216365D01*
X137580576Y-113148773D01*
X137753809Y-113114315D01*
X137930435Y-113114315D01*
X138103668Y-113148773D01*
G37*
G36*
X98001639Y-110573858D02*
G01*
X98018184Y-110584914D01*
X98029240Y-110601459D01*
X98033122Y-110620976D01*
X98033122Y-112320976D01*
X98029240Y-112340493D01*
X98018184Y-112357038D01*
X98001639Y-112368094D01*
X97982122Y-112371976D01*
X96282122Y-112371976D01*
X96262605Y-112368094D01*
X96246060Y-112357038D01*
X96235004Y-112340493D01*
X96231122Y-112320976D01*
X96231122Y-110620976D01*
X96235004Y-110601459D01*
X96246060Y-110584914D01*
X96262605Y-110573858D01*
X96282122Y-110569976D01*
X97982122Y-110569976D01*
X98001639Y-110573858D01*
G37*
G36*
X65133668Y-110608773D02*
G01*
X65296850Y-110676365D01*
X65443710Y-110774494D01*
X65568604Y-110899388D01*
X65666733Y-111046248D01*
X65734325Y-111209430D01*
X65768783Y-111382663D01*
X65768783Y-111559289D01*
X65734325Y-111732522D01*
X65666733Y-111895704D01*
X65568604Y-112042564D01*
X65443710Y-112167458D01*
X65296850Y-112265587D01*
X65133668Y-112333179D01*
X64960435Y-112367637D01*
X64783809Y-112367637D01*
X64610576Y-112333179D01*
X64447394Y-112265587D01*
X64300534Y-112167458D01*
X64175640Y-112042564D01*
X64077511Y-111895704D01*
X64009919Y-111732522D01*
X63975461Y-111559289D01*
X63975461Y-111382663D01*
X64009919Y-111209430D01*
X64077511Y-111046248D01*
X64175640Y-110899388D01*
X64300534Y-110774494D01*
X64447394Y-110676365D01*
X64610576Y-110608773D01*
X64783809Y-110574315D01*
X64960435Y-110574315D01*
X65133668Y-110608773D01*
G37*
G36*
X99933668Y-110608773D02*
G01*
X100096850Y-110676365D01*
X100243710Y-110774494D01*
X100368604Y-110899388D01*
X100466733Y-111046248D01*
X100534325Y-111209430D01*
X100568783Y-111382663D01*
X100568783Y-111559289D01*
X100534325Y-111732522D01*
X100466733Y-111895704D01*
X100368604Y-112042564D01*
X100243710Y-112167458D01*
X100096850Y-112265587D01*
X99933668Y-112333179D01*
X99760435Y-112367637D01*
X99583809Y-112367637D01*
X99410576Y-112333179D01*
X99247394Y-112265587D01*
X99100534Y-112167458D01*
X98975640Y-112042564D01*
X98877511Y-111895704D01*
X98809919Y-111732522D01*
X98775461Y-111559289D01*
X98775461Y-111382663D01*
X98809919Y-111209430D01*
X98877511Y-111046248D01*
X98975640Y-110899388D01*
X99100534Y-110774494D01*
X99247394Y-110676365D01*
X99410576Y-110608773D01*
X99583809Y-110574315D01*
X99760435Y-110574315D01*
X99933668Y-110608773D01*
G37*
G36*
X102473668Y-110608773D02*
G01*
X102636850Y-110676365D01*
X102783710Y-110774494D01*
X102908604Y-110899388D01*
X103006733Y-111046248D01*
X103074325Y-111209430D01*
X103108783Y-111382663D01*
X103108783Y-111559289D01*
X103074325Y-111732522D01*
X103006733Y-111895704D01*
X102908604Y-112042564D01*
X102783710Y-112167458D01*
X102636850Y-112265587D01*
X102473668Y-112333179D01*
X102300435Y-112367637D01*
X102123809Y-112367637D01*
X101950576Y-112333179D01*
X101787394Y-112265587D01*
X101640534Y-112167458D01*
X101515640Y-112042564D01*
X101417511Y-111895704D01*
X101349919Y-111732522D01*
X101315461Y-111559289D01*
X101315461Y-111382663D01*
X101349919Y-111209430D01*
X101417511Y-111046248D01*
X101515640Y-110899388D01*
X101640534Y-110774494D01*
X101787394Y-110676365D01*
X101950576Y-110608773D01*
X102123809Y-110574315D01*
X102300435Y-110574315D01*
X102473668Y-110608773D01*
G37*
G36*
X105013668Y-110608773D02*
G01*
X105176850Y-110676365D01*
X105323710Y-110774494D01*
X105448604Y-110899388D01*
X105546733Y-111046248D01*
X105614325Y-111209430D01*
X105648783Y-111382663D01*
X105648783Y-111559289D01*
X105614325Y-111732522D01*
X105546733Y-111895704D01*
X105448604Y-112042564D01*
X105323710Y-112167458D01*
X105176850Y-112265587D01*
X105013668Y-112333179D01*
X104840435Y-112367637D01*
X104663809Y-112367637D01*
X104490576Y-112333179D01*
X104327394Y-112265587D01*
X104180534Y-112167458D01*
X104055640Y-112042564D01*
X103957511Y-111895704D01*
X103889919Y-111732522D01*
X103855461Y-111559289D01*
X103855461Y-111382663D01*
X103889919Y-111209430D01*
X103957511Y-111046248D01*
X104055640Y-110899388D01*
X104180534Y-110774494D01*
X104327394Y-110676365D01*
X104490576Y-110608773D01*
X104663809Y-110574315D01*
X104840435Y-110574315D01*
X105013668Y-110608773D01*
G37*
G36*
X107553668Y-110608773D02*
G01*
X107716850Y-110676365D01*
X107863710Y-110774494D01*
X107988604Y-110899388D01*
X108086733Y-111046248D01*
X108154325Y-111209430D01*
X108188783Y-111382663D01*
X108188783Y-111559289D01*
X108154325Y-111732522D01*
X108086733Y-111895704D01*
X107988604Y-112042564D01*
X107863710Y-112167458D01*
X107716850Y-112265587D01*
X107553668Y-112333179D01*
X107380435Y-112367637D01*
X107203809Y-112367637D01*
X107030576Y-112333179D01*
X106867394Y-112265587D01*
X106720534Y-112167458D01*
X106595640Y-112042564D01*
X106497511Y-111895704D01*
X106429919Y-111732522D01*
X106395461Y-111559289D01*
X106395461Y-111382663D01*
X106429919Y-111209430D01*
X106497511Y-111046248D01*
X106595640Y-110899388D01*
X106720534Y-110774494D01*
X106867394Y-110676365D01*
X107030576Y-110608773D01*
X107203809Y-110574315D01*
X107380435Y-110574315D01*
X107553668Y-110608773D01*
G37*
G36*
X110093668Y-110608773D02*
G01*
X110256850Y-110676365D01*
X110403710Y-110774494D01*
X110528604Y-110899388D01*
X110626733Y-111046248D01*
X110694325Y-111209430D01*
X110728783Y-111382663D01*
X110728783Y-111559289D01*
X110694325Y-111732522D01*
X110626733Y-111895704D01*
X110528604Y-112042564D01*
X110403710Y-112167458D01*
X110256850Y-112265587D01*
X110093668Y-112333179D01*
X109920435Y-112367637D01*
X109743809Y-112367637D01*
X109570576Y-112333179D01*
X109407394Y-112265587D01*
X109260534Y-112167458D01*
X109135640Y-112042564D01*
X109037511Y-111895704D01*
X108969919Y-111732522D01*
X108935461Y-111559289D01*
X108935461Y-111382663D01*
X108969919Y-111209430D01*
X109037511Y-111046248D01*
X109135640Y-110899388D01*
X109260534Y-110774494D01*
X109407394Y-110676365D01*
X109570576Y-110608773D01*
X109743809Y-110574315D01*
X109920435Y-110574315D01*
X110093668Y-110608773D01*
G37*
G36*
X138103668Y-110608773D02*
G01*
X138266850Y-110676365D01*
X138413710Y-110774494D01*
X138538604Y-110899388D01*
X138636733Y-111046248D01*
X138704325Y-111209430D01*
X138738783Y-111382663D01*
X138738783Y-111559289D01*
X138704325Y-111732522D01*
X138636733Y-111895704D01*
X138538604Y-112042564D01*
X138413710Y-112167458D01*
X138266850Y-112265587D01*
X138103668Y-112333179D01*
X137930435Y-112367637D01*
X137753809Y-112367637D01*
X137580576Y-112333179D01*
X137417394Y-112265587D01*
X137270534Y-112167458D01*
X137145640Y-112042564D01*
X137047511Y-111895704D01*
X136979919Y-111732522D01*
X136945461Y-111559289D01*
X136945461Y-111382663D01*
X136979919Y-111209430D01*
X137047511Y-111046248D01*
X137145640Y-110899388D01*
X137270534Y-110774494D01*
X137417394Y-110676365D01*
X137580576Y-110608773D01*
X137753809Y-110574315D01*
X137930435Y-110574315D01*
X138103668Y-110608773D01*
G37*
G36*
X65133668Y-108068773D02*
G01*
X65296850Y-108136365D01*
X65443710Y-108234494D01*
X65568604Y-108359388D01*
X65666733Y-108506248D01*
X65734325Y-108669430D01*
X65768783Y-108842663D01*
X65768783Y-109019289D01*
X65734325Y-109192522D01*
X65666733Y-109355704D01*
X65568604Y-109502564D01*
X65443710Y-109627458D01*
X65296850Y-109725587D01*
X65133668Y-109793179D01*
X64960435Y-109827637D01*
X64783809Y-109827637D01*
X64610576Y-109793179D01*
X64447394Y-109725587D01*
X64300534Y-109627458D01*
X64175640Y-109502564D01*
X64077511Y-109355704D01*
X64009919Y-109192522D01*
X63975461Y-109019289D01*
X63975461Y-108842663D01*
X64009919Y-108669430D01*
X64077511Y-108506248D01*
X64175640Y-108359388D01*
X64300534Y-108234494D01*
X64447394Y-108136365D01*
X64610576Y-108068773D01*
X64783809Y-108034315D01*
X64960435Y-108034315D01*
X65133668Y-108068773D01*
G37*
G36*
X138103668Y-108068773D02*
G01*
X138266850Y-108136365D01*
X138413710Y-108234494D01*
X138538604Y-108359388D01*
X138636733Y-108506248D01*
X138704325Y-108669430D01*
X138738783Y-108842663D01*
X138738783Y-109019289D01*
X138704325Y-109192522D01*
X138636733Y-109355704D01*
X138538604Y-109502564D01*
X138413710Y-109627458D01*
X138266850Y-109725587D01*
X138103668Y-109793179D01*
X137930435Y-109827637D01*
X137753809Y-109827637D01*
X137580576Y-109793179D01*
X137417394Y-109725587D01*
X137270534Y-109627458D01*
X137145640Y-109502564D01*
X137047511Y-109355704D01*
X136979919Y-109192522D01*
X136945461Y-109019289D01*
X136945461Y-108842663D01*
X136979919Y-108669430D01*
X137047511Y-108506248D01*
X137145640Y-108359388D01*
X137270534Y-108234494D01*
X137417394Y-108136365D01*
X137580576Y-108068773D01*
X137753809Y-108034315D01*
X137930435Y-108034315D01*
X138103668Y-108068773D01*
G37*
G36*
X65133668Y-105528773D02*
G01*
X65296850Y-105596365D01*
X65443710Y-105694494D01*
X65568604Y-105819388D01*
X65666733Y-105966248D01*
X65734325Y-106129430D01*
X65768783Y-106302663D01*
X65768783Y-106479289D01*
X65734325Y-106652522D01*
X65666733Y-106815704D01*
X65568604Y-106962564D01*
X65443710Y-107087458D01*
X65296850Y-107185587D01*
X65133668Y-107253179D01*
X64960435Y-107287637D01*
X64783809Y-107287637D01*
X64610576Y-107253179D01*
X64447394Y-107185587D01*
X64300534Y-107087458D01*
X64175640Y-106962564D01*
X64077511Y-106815704D01*
X64009919Y-106652522D01*
X63975461Y-106479289D01*
X63975461Y-106302663D01*
X64009919Y-106129430D01*
X64077511Y-105966248D01*
X64175640Y-105819388D01*
X64300534Y-105694494D01*
X64447394Y-105596365D01*
X64610576Y-105528773D01*
X64783809Y-105494315D01*
X64960435Y-105494315D01*
X65133668Y-105528773D01*
G37*
G36*
X138103668Y-105528773D02*
G01*
X138266850Y-105596365D01*
X138413710Y-105694494D01*
X138538604Y-105819388D01*
X138636733Y-105966248D01*
X138704325Y-106129430D01*
X138738783Y-106302663D01*
X138738783Y-106479289D01*
X138704325Y-106652522D01*
X138636733Y-106815704D01*
X138538604Y-106962564D01*
X138413710Y-107087458D01*
X138266850Y-107185587D01*
X138103668Y-107253179D01*
X137930435Y-107287637D01*
X137753809Y-107287637D01*
X137580576Y-107253179D01*
X137417394Y-107185587D01*
X137270534Y-107087458D01*
X137145640Y-106962564D01*
X137047511Y-106815704D01*
X136979919Y-106652522D01*
X136945461Y-106479289D01*
X136945461Y-106302663D01*
X136979919Y-106129430D01*
X137047511Y-105966248D01*
X137145640Y-105819388D01*
X137270534Y-105694494D01*
X137417394Y-105596365D01*
X137580576Y-105528773D01*
X137753809Y-105494315D01*
X137930435Y-105494315D01*
X138103668Y-105528773D01*
G37*
G36*
X65133668Y-102988773D02*
G01*
X65296850Y-103056365D01*
X65443710Y-103154494D01*
X65568604Y-103279388D01*
X65666733Y-103426248D01*
X65734325Y-103589430D01*
X65768783Y-103762663D01*
X65768783Y-103939289D01*
X65734325Y-104112522D01*
X65666733Y-104275704D01*
X65568604Y-104422564D01*
X65443710Y-104547458D01*
X65296850Y-104645587D01*
X65133668Y-104713179D01*
X64960435Y-104747637D01*
X64783809Y-104747637D01*
X64610576Y-104713179D01*
X64447394Y-104645587D01*
X64300534Y-104547458D01*
X64175640Y-104422564D01*
X64077511Y-104275704D01*
X64009919Y-104112522D01*
X63975461Y-103939289D01*
X63975461Y-103762663D01*
X64009919Y-103589430D01*
X64077511Y-103426248D01*
X64175640Y-103279388D01*
X64300534Y-103154494D01*
X64447394Y-103056365D01*
X64610576Y-102988773D01*
X64783809Y-102954315D01*
X64960435Y-102954315D01*
X65133668Y-102988773D01*
G37*
G36*
X138103668Y-102988773D02*
G01*
X138266850Y-103056365D01*
X138413710Y-103154494D01*
X138538604Y-103279388D01*
X138636733Y-103426248D01*
X138704325Y-103589430D01*
X138738783Y-103762663D01*
X138738783Y-103939289D01*
X138704325Y-104112522D01*
X138636733Y-104275704D01*
X138538604Y-104422564D01*
X138413710Y-104547458D01*
X138266850Y-104645587D01*
X138103668Y-104713179D01*
X137930435Y-104747637D01*
X137753809Y-104747637D01*
X137580576Y-104713179D01*
X137417394Y-104645587D01*
X137270534Y-104547458D01*
X137145640Y-104422564D01*
X137047511Y-104275704D01*
X136979919Y-104112522D01*
X136945461Y-103939289D01*
X136945461Y-103762663D01*
X136979919Y-103589430D01*
X137047511Y-103426248D01*
X137145640Y-103279388D01*
X137270534Y-103154494D01*
X137417394Y-103056365D01*
X137580576Y-102988773D01*
X137753809Y-102954315D01*
X137930435Y-102954315D01*
X138103668Y-102988773D01*
G37*
G36*
X138711639Y-100413858D02*
G01*
X138728184Y-100424914D01*
X138739240Y-100441459D01*
X138743122Y-100460976D01*
X138743122Y-102160976D01*
X138739240Y-102180493D01*
X138728184Y-102197038D01*
X138711639Y-102208094D01*
X138692122Y-102211976D01*
X136992122Y-102211976D01*
X136972605Y-102208094D01*
X136956060Y-102197038D01*
X136945004Y-102180493D01*
X136941122Y-102160976D01*
X136941122Y-100460976D01*
X136945004Y-100441459D01*
X136956060Y-100424914D01*
X136972605Y-100413858D01*
X136992122Y-100409976D01*
X138692122Y-100409976D01*
X138711639Y-100413858D01*
G37*
G36*
X65133668Y-100448773D02*
G01*
X65296850Y-100516365D01*
X65443710Y-100614494D01*
X65568604Y-100739388D01*
X65666733Y-100886248D01*
X65734325Y-101049430D01*
X65768783Y-101222663D01*
X65768783Y-101399289D01*
X65734325Y-101572522D01*
X65666733Y-101735704D01*
X65568604Y-101882564D01*
X65443710Y-102007458D01*
X65296850Y-102105587D01*
X65133668Y-102173179D01*
X64960435Y-102207637D01*
X64783809Y-102207637D01*
X64610576Y-102173179D01*
X64447394Y-102105587D01*
X64300534Y-102007458D01*
X64175640Y-101882564D01*
X64077511Y-101735704D01*
X64009919Y-101572522D01*
X63975461Y-101399289D01*
X63975461Y-101222663D01*
X64009919Y-101049430D01*
X64077511Y-100886248D01*
X64175640Y-100739388D01*
X64300534Y-100614494D01*
X64447394Y-100516365D01*
X64610576Y-100448773D01*
X64783809Y-100414315D01*
X64960435Y-100414315D01*
X65133668Y-100448773D01*
G37*
G36*
X73424511Y-95075085D02*
G01*
X73436118Y-95075085D01*
X73481478Y-95084107D01*
X73579717Y-95099667D01*
X73611312Y-95109933D01*
X73640114Y-95115662D01*
X73680758Y-95132497D01*
X73738001Y-95151097D01*
X73791634Y-95178424D01*
X73832274Y-95195258D01*
X73856686Y-95211569D01*
X73886289Y-95226653D01*
X73966762Y-95285120D01*
X74005213Y-95310812D01*
X74013419Y-95319018D01*
X74020934Y-95324478D01*
X74138619Y-95442163D01*
X74144078Y-95449677D01*
X74152286Y-95457885D01*
X74177980Y-95496340D01*
X74236444Y-95576808D01*
X74251526Y-95606408D01*
X74267840Y-95630824D01*
X74284675Y-95671468D01*
X74312000Y-95725096D01*
X74330597Y-95782332D01*
X74347436Y-95822984D01*
X74353166Y-95851790D01*
X74363430Y-95883380D01*
X74378988Y-95981608D01*
X74388013Y-96026980D01*
X74388839Y-96043808D01*
X74389851Y-96050193D01*
X74392638Y-96121134D01*
X74393122Y-96130976D01*
X74393122Y-100190976D01*
X74392638Y-100200821D01*
X74389851Y-100271758D01*
X74388839Y-100278142D01*
X74388013Y-100294972D01*
X74378987Y-100340347D01*
X74363430Y-100438571D01*
X74353166Y-100470158D01*
X74347436Y-100498968D01*
X74330595Y-100539623D01*
X74312000Y-100596855D01*
X74284678Y-100650477D01*
X74267840Y-100691128D01*
X74251523Y-100715546D01*
X74236444Y-100745143D01*
X74177989Y-100825599D01*
X74152286Y-100864067D01*
X74144076Y-100872276D01*
X74138619Y-100879788D01*
X74020934Y-100997473D01*
X74013422Y-101002930D01*
X74005213Y-101011140D01*
X73966745Y-101036843D01*
X73886289Y-101095298D01*
X73856692Y-101110377D01*
X73832274Y-101126694D01*
X73791623Y-101143532D01*
X73738001Y-101170854D01*
X73680769Y-101189449D01*
X73640114Y-101206290D01*
X73611304Y-101212020D01*
X73579717Y-101222284D01*
X73481488Y-101237842D01*
X73436118Y-101246867D01*
X73424511Y-101246867D01*
X73415337Y-101248320D01*
X73248907Y-101248320D01*
X73239733Y-101246867D01*
X73228126Y-101246867D01*
X73182757Y-101237842D01*
X73084526Y-101222284D01*
X73052936Y-101212020D01*
X73024130Y-101206290D01*
X72983478Y-101189451D01*
X72926242Y-101170854D01*
X72872614Y-101143529D01*
X72831970Y-101126694D01*
X72807554Y-101110380D01*
X72777954Y-101095298D01*
X72697486Y-101036834D01*
X72659031Y-101011140D01*
X72650823Y-101002932D01*
X72643309Y-100997473D01*
X72525624Y-100879788D01*
X72520164Y-100872273D01*
X72511958Y-100864067D01*
X72486266Y-100825616D01*
X72427799Y-100745143D01*
X72412715Y-100715540D01*
X72396404Y-100691128D01*
X72379570Y-100650488D01*
X72352243Y-100596855D01*
X72333643Y-100539612D01*
X72316808Y-100498968D01*
X72311079Y-100470166D01*
X72300813Y-100438571D01*
X72285251Y-100340322D01*
X72276231Y-100294972D01*
X72275404Y-100278151D01*
X72274392Y-100271758D01*
X72271604Y-100200806D01*
X72271122Y-100190976D01*
X72271122Y-96130976D01*
X72271604Y-96121149D01*
X72274392Y-96050193D01*
X72275404Y-96043798D01*
X72276231Y-96026980D01*
X72285251Y-95981632D01*
X72300813Y-95883380D01*
X72311079Y-95851783D01*
X72316808Y-95822984D01*
X72333642Y-95782343D01*
X72352243Y-95725096D01*
X72379572Y-95671458D01*
X72396404Y-95630824D01*
X72412713Y-95606414D01*
X72427799Y-95576808D01*
X72486274Y-95496323D01*
X72511958Y-95457885D01*
X72520161Y-95449681D01*
X72525624Y-95442163D01*
X72643309Y-95324478D01*
X72650827Y-95319015D01*
X72659031Y-95310812D01*
X72697469Y-95285128D01*
X72777954Y-95226653D01*
X72807560Y-95211567D01*
X72831970Y-95195258D01*
X72872604Y-95178426D01*
X72926242Y-95151097D01*
X72983489Y-95132496D01*
X73024130Y-95115662D01*
X73052929Y-95109933D01*
X73084526Y-95099667D01*
X73182767Y-95084107D01*
X73228126Y-95075085D01*
X73239733Y-95075085D01*
X73248907Y-95073632D01*
X73415337Y-95073632D01*
X73424511Y-95075085D01*
G37*
G36*
X61695834Y-91875923D02*
G01*
X61889993Y-91939009D01*
X62071893Y-92031691D01*
X62237054Y-92151688D01*
X62381410Y-92296044D01*
X62501407Y-92461205D01*
X62594089Y-92643105D01*
X62657175Y-92837264D01*
X62689111Y-93038901D01*
X62689111Y-93243051D01*
X62657175Y-93444688D01*
X62594089Y-93638847D01*
X62501407Y-93820747D01*
X62381410Y-93985908D01*
X62237054Y-94130264D01*
X62071893Y-94250261D01*
X61889993Y-94342943D01*
X61695834Y-94406029D01*
X61494197Y-94437965D01*
X61290047Y-94437965D01*
X61088410Y-94406029D01*
X60894251Y-94342943D01*
X60712351Y-94250261D01*
X60547190Y-94130264D01*
X60402834Y-93985908D01*
X60282837Y-93820747D01*
X60190155Y-93638847D01*
X60127069Y-93444688D01*
X60095133Y-93243051D01*
X60095133Y-93038901D01*
X60127069Y-92837264D01*
X60190155Y-92643105D01*
X60282837Y-92461205D01*
X60402834Y-92296044D01*
X60547190Y-92151688D01*
X60712351Y-92031691D01*
X60894251Y-91939009D01*
X61088410Y-91875923D01*
X61290047Y-91843987D01*
X61494197Y-91843987D01*
X61695834Y-91875923D01*
G37*
G36*
X141695834Y-91875923D02*
G01*
X141889993Y-91939009D01*
X142071893Y-92031691D01*
X142237054Y-92151688D01*
X142381410Y-92296044D01*
X142501407Y-92461205D01*
X142594089Y-92643105D01*
X142657175Y-92837264D01*
X142689111Y-93038901D01*
X142689111Y-93243051D01*
X142657175Y-93444688D01*
X142594089Y-93638847D01*
X142501407Y-93820747D01*
X142381410Y-93985908D01*
X142237054Y-94130264D01*
X142071893Y-94250261D01*
X141889993Y-94342943D01*
X141695834Y-94406029D01*
X141494197Y-94437965D01*
X141290047Y-94437965D01*
X141088410Y-94406029D01*
X140894251Y-94342943D01*
X140712351Y-94250261D01*
X140547190Y-94130264D01*
X140402834Y-93985908D01*
X140282837Y-93820747D01*
X140190155Y-93638847D01*
X140127069Y-93444688D01*
X140095133Y-93243051D01*
X140095133Y-93038901D01*
X140127069Y-92837264D01*
X140190155Y-92643105D01*
X140282837Y-92461205D01*
X140402834Y-92296044D01*
X140547190Y-92151688D01*
X140712351Y-92031691D01*
X140894251Y-91939009D01*
X141088410Y-91875923D01*
X141290047Y-91843987D01*
X141494197Y-91843987D01*
X141695834Y-91875923D01*
G37*
M02*
