M48
; DRILL file {KiCad 9.0.4} date 2025-08-30T14:04:50-0700
; FORMAT={-:-/ absolute / metric / decimal}
; #@! TF.CreationDate,2025-08-30T14:04:50-07:00
; #@! TF.GenerationSoftware,Kicad,Pcbnew,9.0.4
; #@! TF.FileFunction,Plated,1,2,PTH
FMAT,2
METRIC
; #@! TA.AperFunction,Plated,PTH,ViaDrill
T1C0.400
; #@! TA.AperFunction,Plated,PTH,ComponentDrill
T2C1.000
; #@! TA.AperFunction,Plated,PTH,ComponentDrill
T3C1.020
%
G90
G05
T1
X61.0Y-107.0
X61.0Y-112.0
X128.0Y-108.0
X134.0Y-109.0
X135.5Y-107.5
T2
X61.0Y-145.0
X63.54Y-145.0
X64.872Y-101.311
X64.872Y-103.851
X64.872Y-106.391
X64.872Y-108.931
X64.872Y-111.471
X64.872Y-114.011
X74.272Y-143.221
X76.812Y-143.221
X79.352Y-143.221
X81.892Y-143.221
X84.432Y-143.221
X86.972Y-143.221
X97.132Y-111.471
X99.672Y-111.471
X102.212Y-111.471
X104.752Y-111.471
X107.292Y-111.471
X109.832Y-111.471
X131.422Y-142.581
X131.422Y-145.121
X137.842Y-101.311
X137.842Y-103.851
X137.842Y-106.391
X137.842Y-108.931
X137.842Y-111.471
X137.842Y-114.011
T3
G00X47.672Y-127.601
M15
G01X47.672Y-131.661
M16
G05
G00X47.672Y-142.101
M15
G01X47.672Y-146.161
M16
G05
G00X73.332Y-96.131
M15
G01X73.332Y-100.191
M16
G05
G00X73.332Y-110.631
M15
G01X73.332Y-114.691
M16
G05
M30
