G04 #@! TF.GenerationSoftware,KiCad,Pcbnew,9.0.4*
G04 #@! TF.CreationDate,2025-08-30T14:04:45-07:00*
G04 #@! TF.ProjectId,romi_board_bottom,726f6d69-5f62-46f6-9172-645f626f7474,rev?*
G04 #@! TF.SameCoordinates,Original*
G04 #@! TF.FileFunction,Legend,Bot*
G04 #@! TF.FilePolarity,Positive*
%FSLAX46Y46*%
G04 Gerber Fmt 4.6, Leading zero omitted, Abs format (unit mm)*
G04 Created by KiCad (PCBNEW 9.0.4) date 2025-08-30 14:04:45*
%MOMM*%
%LPD*%
G01*
G04 APERTURE LIST*
%ADD10C,0.150000*%
G04 APERTURE END LIST*
D10*
X123163220Y-122259875D02*
X123163220Y-121259875D01*
X122734649Y-122259875D02*
X122734649Y-121736065D01*
X122734649Y-121736065D02*
X122782268Y-121640827D01*
X122782268Y-121640827D02*
X122877506Y-121593208D01*
X122877506Y-121593208D02*
X123020363Y-121593208D01*
X123020363Y-121593208D02*
X123115601Y-121640827D01*
X123115601Y-121640827D02*
X123163220Y-121688446D01*
X122401315Y-121593208D02*
X122020363Y-121593208D01*
X122258458Y-121259875D02*
X122258458Y-122117017D01*
X122258458Y-122117017D02*
X122210839Y-122212256D01*
X122210839Y-122212256D02*
X122115601Y-122259875D01*
X122115601Y-122259875D02*
X122020363Y-122259875D01*
X121829886Y-121593208D02*
X121448934Y-121593208D01*
X121687029Y-121259875D02*
X121687029Y-122117017D01*
X121687029Y-122117017D02*
X121639410Y-122212256D01*
X121639410Y-122212256D02*
X121544172Y-122259875D01*
X121544172Y-122259875D02*
X121448934Y-122259875D01*
X121115600Y-121593208D02*
X121115600Y-122593208D01*
X121115600Y-121640827D02*
X121020362Y-121593208D01*
X121020362Y-121593208D02*
X120829886Y-121593208D01*
X120829886Y-121593208D02*
X120734648Y-121640827D01*
X120734648Y-121640827D02*
X120687029Y-121688446D01*
X120687029Y-121688446D02*
X120639410Y-121783684D01*
X120639410Y-121783684D02*
X120639410Y-122069398D01*
X120639410Y-122069398D02*
X120687029Y-122164636D01*
X120687029Y-122164636D02*
X120734648Y-122212256D01*
X120734648Y-122212256D02*
X120829886Y-122259875D01*
X120829886Y-122259875D02*
X121020362Y-122259875D01*
X121020362Y-122259875D02*
X121115600Y-122212256D01*
X120258457Y-122212256D02*
X120163219Y-122259875D01*
X120163219Y-122259875D02*
X119972743Y-122259875D01*
X119972743Y-122259875D02*
X119877505Y-122212256D01*
X119877505Y-122212256D02*
X119829886Y-122117017D01*
X119829886Y-122117017D02*
X119829886Y-122069398D01*
X119829886Y-122069398D02*
X119877505Y-121974160D01*
X119877505Y-121974160D02*
X119972743Y-121926541D01*
X119972743Y-121926541D02*
X120115600Y-121926541D01*
X120115600Y-121926541D02*
X120210838Y-121878922D01*
X120210838Y-121878922D02*
X120258457Y-121783684D01*
X120258457Y-121783684D02*
X120258457Y-121736065D01*
X120258457Y-121736065D02*
X120210838Y-121640827D01*
X120210838Y-121640827D02*
X120115600Y-121593208D01*
X120115600Y-121593208D02*
X119972743Y-121593208D01*
X119972743Y-121593208D02*
X119877505Y-121640827D01*
X119401314Y-122164636D02*
X119353695Y-122212256D01*
X119353695Y-122212256D02*
X119401314Y-122259875D01*
X119401314Y-122259875D02*
X119448933Y-122212256D01*
X119448933Y-122212256D02*
X119401314Y-122164636D01*
X119401314Y-122164636D02*
X119401314Y-122259875D01*
X119401314Y-121640827D02*
X119353695Y-121688446D01*
X119353695Y-121688446D02*
X119401314Y-121736065D01*
X119401314Y-121736065D02*
X119448933Y-121688446D01*
X119448933Y-121688446D02*
X119401314Y-121640827D01*
X119401314Y-121640827D02*
X119401314Y-121736065D01*
X118210839Y-121212256D02*
X119067981Y-122497970D01*
X117163220Y-121212256D02*
X118020362Y-122497970D01*
X116401315Y-121593208D02*
X116401315Y-122402732D01*
X116401315Y-122402732D02*
X116448934Y-122497970D01*
X116448934Y-122497970D02*
X116496553Y-122545589D01*
X116496553Y-122545589D02*
X116591791Y-122593208D01*
X116591791Y-122593208D02*
X116734648Y-122593208D01*
X116734648Y-122593208D02*
X116829886Y-122545589D01*
X116401315Y-122212256D02*
X116496553Y-122259875D01*
X116496553Y-122259875D02*
X116687029Y-122259875D01*
X116687029Y-122259875D02*
X116782267Y-122212256D01*
X116782267Y-122212256D02*
X116829886Y-122164636D01*
X116829886Y-122164636D02*
X116877505Y-122069398D01*
X116877505Y-122069398D02*
X116877505Y-121783684D01*
X116877505Y-121783684D02*
X116829886Y-121688446D01*
X116829886Y-121688446D02*
X116782267Y-121640827D01*
X116782267Y-121640827D02*
X116687029Y-121593208D01*
X116687029Y-121593208D02*
X116496553Y-121593208D01*
X116496553Y-121593208D02*
X116401315Y-121640827D01*
X115925124Y-122259875D02*
X115925124Y-121593208D01*
X115925124Y-121259875D02*
X115972743Y-121307494D01*
X115972743Y-121307494D02*
X115925124Y-121355113D01*
X115925124Y-121355113D02*
X115877505Y-121307494D01*
X115877505Y-121307494D02*
X115925124Y-121259875D01*
X115925124Y-121259875D02*
X115925124Y-121355113D01*
X115591791Y-121593208D02*
X115210839Y-121593208D01*
X115448934Y-121259875D02*
X115448934Y-122117017D01*
X115448934Y-122117017D02*
X115401315Y-122212256D01*
X115401315Y-122212256D02*
X115306077Y-122259875D01*
X115306077Y-122259875D02*
X115210839Y-122259875D01*
X114877505Y-122259875D02*
X114877505Y-121259875D01*
X114448934Y-122259875D02*
X114448934Y-121736065D01*
X114448934Y-121736065D02*
X114496553Y-121640827D01*
X114496553Y-121640827D02*
X114591791Y-121593208D01*
X114591791Y-121593208D02*
X114734648Y-121593208D01*
X114734648Y-121593208D02*
X114829886Y-121640827D01*
X114829886Y-121640827D02*
X114877505Y-121688446D01*
X113544172Y-121593208D02*
X113544172Y-122259875D01*
X113972743Y-121593208D02*
X113972743Y-122117017D01*
X113972743Y-122117017D02*
X113925124Y-122212256D01*
X113925124Y-122212256D02*
X113829886Y-122259875D01*
X113829886Y-122259875D02*
X113687029Y-122259875D01*
X113687029Y-122259875D02*
X113591791Y-122212256D01*
X113591791Y-122212256D02*
X113544172Y-122164636D01*
X113067981Y-122259875D02*
X113067981Y-121259875D01*
X113067981Y-121640827D02*
X112972743Y-121593208D01*
X112972743Y-121593208D02*
X112782267Y-121593208D01*
X112782267Y-121593208D02*
X112687029Y-121640827D01*
X112687029Y-121640827D02*
X112639410Y-121688446D01*
X112639410Y-121688446D02*
X112591791Y-121783684D01*
X112591791Y-121783684D02*
X112591791Y-122069398D01*
X112591791Y-122069398D02*
X112639410Y-122164636D01*
X112639410Y-122164636D02*
X112687029Y-122212256D01*
X112687029Y-122212256D02*
X112782267Y-122259875D01*
X112782267Y-122259875D02*
X112972743Y-122259875D01*
X112972743Y-122259875D02*
X113067981Y-122212256D01*
X112163219Y-122164636D02*
X112115600Y-122212256D01*
X112115600Y-122212256D02*
X112163219Y-122259875D01*
X112163219Y-122259875D02*
X112210838Y-122212256D01*
X112210838Y-122212256D02*
X112163219Y-122164636D01*
X112163219Y-122164636D02*
X112163219Y-122259875D01*
X111258458Y-122212256D02*
X111353696Y-122259875D01*
X111353696Y-122259875D02*
X111544172Y-122259875D01*
X111544172Y-122259875D02*
X111639410Y-122212256D01*
X111639410Y-122212256D02*
X111687029Y-122164636D01*
X111687029Y-122164636D02*
X111734648Y-122069398D01*
X111734648Y-122069398D02*
X111734648Y-121783684D01*
X111734648Y-121783684D02*
X111687029Y-121688446D01*
X111687029Y-121688446D02*
X111639410Y-121640827D01*
X111639410Y-121640827D02*
X111544172Y-121593208D01*
X111544172Y-121593208D02*
X111353696Y-121593208D01*
X111353696Y-121593208D02*
X111258458Y-121640827D01*
X110687029Y-122259875D02*
X110782267Y-122212256D01*
X110782267Y-122212256D02*
X110829886Y-122164636D01*
X110829886Y-122164636D02*
X110877505Y-122069398D01*
X110877505Y-122069398D02*
X110877505Y-121783684D01*
X110877505Y-121783684D02*
X110829886Y-121688446D01*
X110829886Y-121688446D02*
X110782267Y-121640827D01*
X110782267Y-121640827D02*
X110687029Y-121593208D01*
X110687029Y-121593208D02*
X110544172Y-121593208D01*
X110544172Y-121593208D02*
X110448934Y-121640827D01*
X110448934Y-121640827D02*
X110401315Y-121688446D01*
X110401315Y-121688446D02*
X110353696Y-121783684D01*
X110353696Y-121783684D02*
X110353696Y-122069398D01*
X110353696Y-122069398D02*
X110401315Y-122164636D01*
X110401315Y-122164636D02*
X110448934Y-122212256D01*
X110448934Y-122212256D02*
X110544172Y-122259875D01*
X110544172Y-122259875D02*
X110687029Y-122259875D01*
X109925124Y-122259875D02*
X109925124Y-121593208D01*
X109925124Y-121688446D02*
X109877505Y-121640827D01*
X109877505Y-121640827D02*
X109782267Y-121593208D01*
X109782267Y-121593208D02*
X109639410Y-121593208D01*
X109639410Y-121593208D02*
X109544172Y-121640827D01*
X109544172Y-121640827D02*
X109496553Y-121736065D01*
X109496553Y-121736065D02*
X109496553Y-122259875D01*
X109496553Y-121736065D02*
X109448934Y-121640827D01*
X109448934Y-121640827D02*
X109353696Y-121593208D01*
X109353696Y-121593208D02*
X109210839Y-121593208D01*
X109210839Y-121593208D02*
X109115600Y-121640827D01*
X109115600Y-121640827D02*
X109067981Y-121736065D01*
X109067981Y-121736065D02*
X109067981Y-122259875D01*
X107877506Y-121212256D02*
X108734648Y-122497970D01*
X107544172Y-121593208D02*
X107544172Y-122593208D01*
X107544172Y-121640827D02*
X107448934Y-121593208D01*
X107448934Y-121593208D02*
X107258458Y-121593208D01*
X107258458Y-121593208D02*
X107163220Y-121640827D01*
X107163220Y-121640827D02*
X107115601Y-121688446D01*
X107115601Y-121688446D02*
X107067982Y-121783684D01*
X107067982Y-121783684D02*
X107067982Y-122069398D01*
X107067982Y-122069398D02*
X107115601Y-122164636D01*
X107115601Y-122164636D02*
X107163220Y-122212256D01*
X107163220Y-122212256D02*
X107258458Y-122259875D01*
X107258458Y-122259875D02*
X107448934Y-122259875D01*
X107448934Y-122259875D02*
X107544172Y-122212256D01*
X106496553Y-122259875D02*
X106591791Y-122212256D01*
X106591791Y-122212256D02*
X106639410Y-122164636D01*
X106639410Y-122164636D02*
X106687029Y-122069398D01*
X106687029Y-122069398D02*
X106687029Y-121783684D01*
X106687029Y-121783684D02*
X106639410Y-121688446D01*
X106639410Y-121688446D02*
X106591791Y-121640827D01*
X106591791Y-121640827D02*
X106496553Y-121593208D01*
X106496553Y-121593208D02*
X106353696Y-121593208D01*
X106353696Y-121593208D02*
X106258458Y-121640827D01*
X106258458Y-121640827D02*
X106210839Y-121688446D01*
X106210839Y-121688446D02*
X106163220Y-121783684D01*
X106163220Y-121783684D02*
X106163220Y-122069398D01*
X106163220Y-122069398D02*
X106210839Y-122164636D01*
X106210839Y-122164636D02*
X106258458Y-122212256D01*
X106258458Y-122212256D02*
X106353696Y-122259875D01*
X106353696Y-122259875D02*
X106496553Y-122259875D01*
X105734648Y-122259875D02*
X105734648Y-121593208D01*
X105734648Y-121783684D02*
X105687029Y-121688446D01*
X105687029Y-121688446D02*
X105639410Y-121640827D01*
X105639410Y-121640827D02*
X105544172Y-121593208D01*
X105544172Y-121593208D02*
X105448934Y-121593208D01*
X105258457Y-121593208D02*
X104877505Y-121593208D01*
X105115600Y-121259875D02*
X105115600Y-122117017D01*
X105115600Y-122117017D02*
X105067981Y-122212256D01*
X105067981Y-122212256D02*
X104972743Y-122259875D01*
X104972743Y-122259875D02*
X104877505Y-122259875D01*
X104401314Y-122259875D02*
X104496552Y-122212256D01*
X104496552Y-122212256D02*
X104544171Y-122117017D01*
X104544171Y-122117017D02*
X104544171Y-121259875D01*
X103591790Y-122259875D02*
X103591790Y-121736065D01*
X103591790Y-121736065D02*
X103639409Y-121640827D01*
X103639409Y-121640827D02*
X103734647Y-121593208D01*
X103734647Y-121593208D02*
X103925123Y-121593208D01*
X103925123Y-121593208D02*
X104020361Y-121640827D01*
X103591790Y-122212256D02*
X103687028Y-122259875D01*
X103687028Y-122259875D02*
X103925123Y-122259875D01*
X103925123Y-122259875D02*
X104020361Y-122212256D01*
X104020361Y-122212256D02*
X104067980Y-122117017D01*
X104067980Y-122117017D02*
X104067980Y-122021779D01*
X104067980Y-122021779D02*
X104020361Y-121926541D01*
X104020361Y-121926541D02*
X103925123Y-121878922D01*
X103925123Y-121878922D02*
X103687028Y-121878922D01*
X103687028Y-121878922D02*
X103591790Y-121831303D01*
X103115599Y-121593208D02*
X103115599Y-122259875D01*
X103115599Y-121688446D02*
X103067980Y-121640827D01*
X103067980Y-121640827D02*
X102972742Y-121593208D01*
X102972742Y-121593208D02*
X102829885Y-121593208D01*
X102829885Y-121593208D02*
X102734647Y-121640827D01*
X102734647Y-121640827D02*
X102687028Y-121736065D01*
X102687028Y-121736065D02*
X102687028Y-122259875D01*
X101782266Y-122259875D02*
X101782266Y-121259875D01*
X101782266Y-122212256D02*
X101877504Y-122259875D01*
X101877504Y-122259875D02*
X102067980Y-122259875D01*
X102067980Y-122259875D02*
X102163218Y-122212256D01*
X102163218Y-122212256D02*
X102210837Y-122164636D01*
X102210837Y-122164636D02*
X102258456Y-122069398D01*
X102258456Y-122069398D02*
X102258456Y-121783684D01*
X102258456Y-121783684D02*
X102210837Y-121688446D01*
X102210837Y-121688446D02*
X102163218Y-121640827D01*
X102163218Y-121640827D02*
X102067980Y-121593208D01*
X102067980Y-121593208D02*
X101877504Y-121593208D01*
X101877504Y-121593208D02*
X101782266Y-121640827D01*
X101306075Y-122259875D02*
X101306075Y-121593208D01*
X101306075Y-121783684D02*
X101258456Y-121688446D01*
X101258456Y-121688446D02*
X101210837Y-121640827D01*
X101210837Y-121640827D02*
X101115599Y-121593208D01*
X101115599Y-121593208D02*
X101020361Y-121593208D01*
X100544170Y-122259875D02*
X100639408Y-122212256D01*
X100639408Y-122212256D02*
X100687027Y-122164636D01*
X100687027Y-122164636D02*
X100734646Y-122069398D01*
X100734646Y-122069398D02*
X100734646Y-121783684D01*
X100734646Y-121783684D02*
X100687027Y-121688446D01*
X100687027Y-121688446D02*
X100639408Y-121640827D01*
X100639408Y-121640827D02*
X100544170Y-121593208D01*
X100544170Y-121593208D02*
X100401313Y-121593208D01*
X100401313Y-121593208D02*
X100306075Y-121640827D01*
X100306075Y-121640827D02*
X100258456Y-121688446D01*
X100258456Y-121688446D02*
X100210837Y-121783684D01*
X100210837Y-121783684D02*
X100210837Y-122069398D01*
X100210837Y-122069398D02*
X100258456Y-122164636D01*
X100258456Y-122164636D02*
X100306075Y-122212256D01*
X100306075Y-122212256D02*
X100401313Y-122259875D01*
X100401313Y-122259875D02*
X100544170Y-122259875D01*
X99782265Y-122259875D02*
X99782265Y-121259875D01*
X99782265Y-121640827D02*
X99687027Y-121593208D01*
X99687027Y-121593208D02*
X99496551Y-121593208D01*
X99496551Y-121593208D02*
X99401313Y-121640827D01*
X99401313Y-121640827D02*
X99353694Y-121688446D01*
X99353694Y-121688446D02*
X99306075Y-121783684D01*
X99306075Y-121783684D02*
X99306075Y-122069398D01*
X99306075Y-122069398D02*
X99353694Y-122164636D01*
X99353694Y-122164636D02*
X99401313Y-122212256D01*
X99401313Y-122212256D02*
X99496551Y-122259875D01*
X99496551Y-122259875D02*
X99687027Y-122259875D01*
X99687027Y-122259875D02*
X99782265Y-122212256D01*
X98734646Y-122259875D02*
X98829884Y-122212256D01*
X98829884Y-122212256D02*
X98877503Y-122164636D01*
X98877503Y-122164636D02*
X98925122Y-122069398D01*
X98925122Y-122069398D02*
X98925122Y-121783684D01*
X98925122Y-121783684D02*
X98877503Y-121688446D01*
X98877503Y-121688446D02*
X98829884Y-121640827D01*
X98829884Y-121640827D02*
X98734646Y-121593208D01*
X98734646Y-121593208D02*
X98591789Y-121593208D01*
X98591789Y-121593208D02*
X98496551Y-121640827D01*
X98496551Y-121640827D02*
X98448932Y-121688446D01*
X98448932Y-121688446D02*
X98401313Y-121783684D01*
X98401313Y-121783684D02*
X98401313Y-122069398D01*
X98401313Y-122069398D02*
X98448932Y-122164636D01*
X98448932Y-122164636D02*
X98496551Y-122212256D01*
X98496551Y-122212256D02*
X98591789Y-122259875D01*
X98591789Y-122259875D02*
X98734646Y-122259875D01*
X98115598Y-121593208D02*
X97734646Y-121593208D01*
X97972741Y-121259875D02*
X97972741Y-122117017D01*
X97972741Y-122117017D02*
X97925122Y-122212256D01*
X97925122Y-122212256D02*
X97829884Y-122259875D01*
X97829884Y-122259875D02*
X97734646Y-122259875D01*
X97401312Y-122259875D02*
X97401312Y-121593208D01*
X97401312Y-121259875D02*
X97448931Y-121307494D01*
X97448931Y-121307494D02*
X97401312Y-121355113D01*
X97401312Y-121355113D02*
X97353693Y-121307494D01*
X97353693Y-121307494D02*
X97401312Y-121259875D01*
X97401312Y-121259875D02*
X97401312Y-121355113D01*
X96496551Y-122212256D02*
X96591789Y-122259875D01*
X96591789Y-122259875D02*
X96782265Y-122259875D01*
X96782265Y-122259875D02*
X96877503Y-122212256D01*
X96877503Y-122212256D02*
X96925122Y-122164636D01*
X96925122Y-122164636D02*
X96972741Y-122069398D01*
X96972741Y-122069398D02*
X96972741Y-121783684D01*
X96972741Y-121783684D02*
X96925122Y-121688446D01*
X96925122Y-121688446D02*
X96877503Y-121640827D01*
X96877503Y-121640827D02*
X96782265Y-121593208D01*
X96782265Y-121593208D02*
X96591789Y-121593208D01*
X96591789Y-121593208D02*
X96496551Y-121640827D01*
X96115598Y-122212256D02*
X96020360Y-122259875D01*
X96020360Y-122259875D02*
X95829884Y-122259875D01*
X95829884Y-122259875D02*
X95734646Y-122212256D01*
X95734646Y-122212256D02*
X95687027Y-122117017D01*
X95687027Y-122117017D02*
X95687027Y-122069398D01*
X95687027Y-122069398D02*
X95734646Y-121974160D01*
X95734646Y-121974160D02*
X95829884Y-121926541D01*
X95829884Y-121926541D02*
X95972741Y-121926541D01*
X95972741Y-121926541D02*
X96067979Y-121878922D01*
X96067979Y-121878922D02*
X96115598Y-121783684D01*
X96115598Y-121783684D02*
X96115598Y-121736065D01*
X96115598Y-121736065D02*
X96067979Y-121640827D01*
X96067979Y-121640827D02*
X95972741Y-121593208D01*
X95972741Y-121593208D02*
X95829884Y-121593208D01*
X95829884Y-121593208D02*
X95734646Y-121640827D01*
X94544170Y-121212256D02*
X95401312Y-122497970D01*
X93782265Y-122212256D02*
X93877503Y-122259875D01*
X93877503Y-122259875D02*
X94067979Y-122259875D01*
X94067979Y-122259875D02*
X94163217Y-122212256D01*
X94163217Y-122212256D02*
X94210836Y-122164636D01*
X94210836Y-122164636D02*
X94258455Y-122069398D01*
X94258455Y-122069398D02*
X94258455Y-121783684D01*
X94258455Y-121783684D02*
X94210836Y-121688446D01*
X94210836Y-121688446D02*
X94163217Y-121640827D01*
X94163217Y-121640827D02*
X94067979Y-121593208D01*
X94067979Y-121593208D02*
X93877503Y-121593208D01*
X93877503Y-121593208D02*
X93782265Y-121640827D01*
X93210836Y-122259875D02*
X93306074Y-122212256D01*
X93306074Y-122212256D02*
X93353693Y-122164636D01*
X93353693Y-122164636D02*
X93401312Y-122069398D01*
X93401312Y-122069398D02*
X93401312Y-121783684D01*
X93401312Y-121783684D02*
X93353693Y-121688446D01*
X93353693Y-121688446D02*
X93306074Y-121640827D01*
X93306074Y-121640827D02*
X93210836Y-121593208D01*
X93210836Y-121593208D02*
X93067979Y-121593208D01*
X93067979Y-121593208D02*
X92972741Y-121640827D01*
X92972741Y-121640827D02*
X92925122Y-121688446D01*
X92925122Y-121688446D02*
X92877503Y-121783684D01*
X92877503Y-121783684D02*
X92877503Y-122069398D01*
X92877503Y-122069398D02*
X92925122Y-122164636D01*
X92925122Y-122164636D02*
X92972741Y-122212256D01*
X92972741Y-122212256D02*
X93067979Y-122259875D01*
X93067979Y-122259875D02*
X93210836Y-122259875D01*
X92448931Y-122259875D02*
X92448931Y-121593208D01*
X92448931Y-121688446D02*
X92401312Y-121640827D01*
X92401312Y-121640827D02*
X92306074Y-121593208D01*
X92306074Y-121593208D02*
X92163217Y-121593208D01*
X92163217Y-121593208D02*
X92067979Y-121640827D01*
X92067979Y-121640827D02*
X92020360Y-121736065D01*
X92020360Y-121736065D02*
X92020360Y-122259875D01*
X92020360Y-121736065D02*
X91972741Y-121640827D01*
X91972741Y-121640827D02*
X91877503Y-121593208D01*
X91877503Y-121593208D02*
X91734646Y-121593208D01*
X91734646Y-121593208D02*
X91639407Y-121640827D01*
X91639407Y-121640827D02*
X91591788Y-121736065D01*
X91591788Y-121736065D02*
X91591788Y-122259875D01*
X91115598Y-122259875D02*
X91115598Y-121593208D01*
X91115598Y-121688446D02*
X91067979Y-121640827D01*
X91067979Y-121640827D02*
X90972741Y-121593208D01*
X90972741Y-121593208D02*
X90829884Y-121593208D01*
X90829884Y-121593208D02*
X90734646Y-121640827D01*
X90734646Y-121640827D02*
X90687027Y-121736065D01*
X90687027Y-121736065D02*
X90687027Y-122259875D01*
X90687027Y-121736065D02*
X90639408Y-121640827D01*
X90639408Y-121640827D02*
X90544170Y-121593208D01*
X90544170Y-121593208D02*
X90401313Y-121593208D01*
X90401313Y-121593208D02*
X90306074Y-121640827D01*
X90306074Y-121640827D02*
X90258455Y-121736065D01*
X90258455Y-121736065D02*
X90258455Y-122259875D01*
X89639408Y-122259875D02*
X89734646Y-122212256D01*
X89734646Y-122212256D02*
X89782265Y-122164636D01*
X89782265Y-122164636D02*
X89829884Y-122069398D01*
X89829884Y-122069398D02*
X89829884Y-121783684D01*
X89829884Y-121783684D02*
X89782265Y-121688446D01*
X89782265Y-121688446D02*
X89734646Y-121640827D01*
X89734646Y-121640827D02*
X89639408Y-121593208D01*
X89639408Y-121593208D02*
X89496551Y-121593208D01*
X89496551Y-121593208D02*
X89401313Y-121640827D01*
X89401313Y-121640827D02*
X89353694Y-121688446D01*
X89353694Y-121688446D02*
X89306075Y-121783684D01*
X89306075Y-121783684D02*
X89306075Y-122069398D01*
X89306075Y-122069398D02*
X89353694Y-122164636D01*
X89353694Y-122164636D02*
X89401313Y-122212256D01*
X89401313Y-122212256D02*
X89496551Y-122259875D01*
X89496551Y-122259875D02*
X89639408Y-122259875D01*
X88877503Y-121593208D02*
X88877503Y-122259875D01*
X88877503Y-121688446D02*
X88829884Y-121640827D01*
X88829884Y-121640827D02*
X88734646Y-121593208D01*
X88734646Y-121593208D02*
X88591789Y-121593208D01*
X88591789Y-121593208D02*
X88496551Y-121640827D01*
X88496551Y-121640827D02*
X88448932Y-121736065D01*
X88448932Y-121736065D02*
X88448932Y-122259875D01*
X88210837Y-122355113D02*
X87448932Y-122355113D01*
X87210836Y-121593208D02*
X87210836Y-122593208D01*
X87210836Y-121640827D02*
X87115598Y-121593208D01*
X87115598Y-121593208D02*
X86925122Y-121593208D01*
X86925122Y-121593208D02*
X86829884Y-121640827D01*
X86829884Y-121640827D02*
X86782265Y-121688446D01*
X86782265Y-121688446D02*
X86734646Y-121783684D01*
X86734646Y-121783684D02*
X86734646Y-122069398D01*
X86734646Y-122069398D02*
X86782265Y-122164636D01*
X86782265Y-122164636D02*
X86829884Y-122212256D01*
X86829884Y-122212256D02*
X86925122Y-122259875D01*
X86925122Y-122259875D02*
X87115598Y-122259875D01*
X87115598Y-122259875D02*
X87210836Y-122212256D01*
X86163217Y-122259875D02*
X86258455Y-122212256D01*
X86258455Y-122212256D02*
X86306074Y-122117017D01*
X86306074Y-122117017D02*
X86306074Y-121259875D01*
X85353693Y-122259875D02*
X85353693Y-121736065D01*
X85353693Y-121736065D02*
X85401312Y-121640827D01*
X85401312Y-121640827D02*
X85496550Y-121593208D01*
X85496550Y-121593208D02*
X85687026Y-121593208D01*
X85687026Y-121593208D02*
X85782264Y-121640827D01*
X85353693Y-122212256D02*
X85448931Y-122259875D01*
X85448931Y-122259875D02*
X85687026Y-122259875D01*
X85687026Y-122259875D02*
X85782264Y-122212256D01*
X85782264Y-122212256D02*
X85829883Y-122117017D01*
X85829883Y-122117017D02*
X85829883Y-122021779D01*
X85829883Y-122021779D02*
X85782264Y-121926541D01*
X85782264Y-121926541D02*
X85687026Y-121878922D01*
X85687026Y-121878922D02*
X85448931Y-121878922D01*
X85448931Y-121878922D02*
X85353693Y-121831303D01*
X85020359Y-121593208D02*
X84639407Y-121593208D01*
X84877502Y-121259875D02*
X84877502Y-122117017D01*
X84877502Y-122117017D02*
X84829883Y-122212256D01*
X84829883Y-122212256D02*
X84734645Y-122259875D01*
X84734645Y-122259875D02*
X84639407Y-122259875D01*
X84448930Y-121593208D02*
X84067978Y-121593208D01*
X84306073Y-122259875D02*
X84306073Y-121402732D01*
X84306073Y-121402732D02*
X84258454Y-121307494D01*
X84258454Y-121307494D02*
X84163216Y-121259875D01*
X84163216Y-121259875D02*
X84067978Y-121259875D01*
X83591787Y-122259875D02*
X83687025Y-122212256D01*
X83687025Y-122212256D02*
X83734644Y-122164636D01*
X83734644Y-122164636D02*
X83782263Y-122069398D01*
X83782263Y-122069398D02*
X83782263Y-121783684D01*
X83782263Y-121783684D02*
X83734644Y-121688446D01*
X83734644Y-121688446D02*
X83687025Y-121640827D01*
X83687025Y-121640827D02*
X83591787Y-121593208D01*
X83591787Y-121593208D02*
X83448930Y-121593208D01*
X83448930Y-121593208D02*
X83353692Y-121640827D01*
X83353692Y-121640827D02*
X83306073Y-121688446D01*
X83306073Y-121688446D02*
X83258454Y-121783684D01*
X83258454Y-121783684D02*
X83258454Y-122069398D01*
X83258454Y-122069398D02*
X83306073Y-122164636D01*
X83306073Y-122164636D02*
X83353692Y-122212256D01*
X83353692Y-122212256D02*
X83448930Y-122259875D01*
X83448930Y-122259875D02*
X83591787Y-122259875D01*
X82829882Y-122259875D02*
X82829882Y-121593208D01*
X82829882Y-121783684D02*
X82782263Y-121688446D01*
X82782263Y-121688446D02*
X82734644Y-121640827D01*
X82734644Y-121640827D02*
X82639406Y-121593208D01*
X82639406Y-121593208D02*
X82544168Y-121593208D01*
X82210834Y-122259875D02*
X82210834Y-121593208D01*
X82210834Y-121688446D02*
X82163215Y-121640827D01*
X82163215Y-121640827D02*
X82067977Y-121593208D01*
X82067977Y-121593208D02*
X81925120Y-121593208D01*
X81925120Y-121593208D02*
X81829882Y-121640827D01*
X81829882Y-121640827D02*
X81782263Y-121736065D01*
X81782263Y-121736065D02*
X81782263Y-122259875D01*
X81782263Y-121736065D02*
X81734644Y-121640827D01*
X81734644Y-121640827D02*
X81639406Y-121593208D01*
X81639406Y-121593208D02*
X81496549Y-121593208D01*
X81496549Y-121593208D02*
X81401310Y-121640827D01*
X81401310Y-121640827D02*
X81353691Y-121736065D01*
X81353691Y-121736065D02*
X81353691Y-122259875D01*
X123306077Y-122869819D02*
X122972744Y-123869819D01*
X122972744Y-123869819D02*
X122639411Y-122869819D01*
X121782268Y-123869819D02*
X122353696Y-123869819D01*
X122067982Y-123869819D02*
X122067982Y-122869819D01*
X122067982Y-122869819D02*
X122163220Y-123012676D01*
X122163220Y-123012676D02*
X122258458Y-123107914D01*
X122258458Y-123107914D02*
X122353696Y-123155533D01*
X121353696Y-123774580D02*
X121306077Y-123822200D01*
X121306077Y-123822200D02*
X121353696Y-123869819D01*
X121353696Y-123869819D02*
X121401315Y-123822200D01*
X121401315Y-123822200D02*
X121353696Y-123774580D01*
X121353696Y-123774580D02*
X121353696Y-123869819D01*
X120353697Y-123869819D02*
X120925125Y-123869819D01*
X120639411Y-123869819D02*
X120639411Y-122869819D01*
X120639411Y-122869819D02*
X120734649Y-123012676D01*
X120734649Y-123012676D02*
X120829887Y-123107914D01*
X120829887Y-123107914D02*
X120925125Y-123155533D01*
X119210839Y-122965057D02*
X119163220Y-122917438D01*
X119163220Y-122917438D02*
X119067982Y-122869819D01*
X119067982Y-122869819D02*
X118829887Y-122869819D01*
X118829887Y-122869819D02*
X118734649Y-122917438D01*
X118734649Y-122917438D02*
X118687030Y-122965057D01*
X118687030Y-122965057D02*
X118639411Y-123060295D01*
X118639411Y-123060295D02*
X118639411Y-123155533D01*
X118639411Y-123155533D02*
X118687030Y-123298390D01*
X118687030Y-123298390D02*
X119258458Y-123869819D01*
X119258458Y-123869819D02*
X118639411Y-123869819D01*
X118020363Y-122869819D02*
X117925125Y-122869819D01*
X117925125Y-122869819D02*
X117829887Y-122917438D01*
X117829887Y-122917438D02*
X117782268Y-122965057D01*
X117782268Y-122965057D02*
X117734649Y-123060295D01*
X117734649Y-123060295D02*
X117687030Y-123250771D01*
X117687030Y-123250771D02*
X117687030Y-123488866D01*
X117687030Y-123488866D02*
X117734649Y-123679342D01*
X117734649Y-123679342D02*
X117782268Y-123774580D01*
X117782268Y-123774580D02*
X117829887Y-123822200D01*
X117829887Y-123822200D02*
X117925125Y-123869819D01*
X117925125Y-123869819D02*
X118020363Y-123869819D01*
X118020363Y-123869819D02*
X118115601Y-123822200D01*
X118115601Y-123822200D02*
X118163220Y-123774580D01*
X118163220Y-123774580D02*
X118210839Y-123679342D01*
X118210839Y-123679342D02*
X118258458Y-123488866D01*
X118258458Y-123488866D02*
X118258458Y-123250771D01*
X118258458Y-123250771D02*
X118210839Y-123060295D01*
X118210839Y-123060295D02*
X118163220Y-122965057D01*
X118163220Y-122965057D02*
X118115601Y-122917438D01*
X118115601Y-122917438D02*
X118020363Y-122869819D01*
X117306077Y-122965057D02*
X117258458Y-122917438D01*
X117258458Y-122917438D02*
X117163220Y-122869819D01*
X117163220Y-122869819D02*
X116925125Y-122869819D01*
X116925125Y-122869819D02*
X116829887Y-122917438D01*
X116829887Y-122917438D02*
X116782268Y-122965057D01*
X116782268Y-122965057D02*
X116734649Y-123060295D01*
X116734649Y-123060295D02*
X116734649Y-123155533D01*
X116734649Y-123155533D02*
X116782268Y-123298390D01*
X116782268Y-123298390D02*
X117353696Y-123869819D01*
X117353696Y-123869819D02*
X116734649Y-123869819D01*
X115829887Y-122869819D02*
X116306077Y-122869819D01*
X116306077Y-122869819D02*
X116353696Y-123346009D01*
X116353696Y-123346009D02*
X116306077Y-123298390D01*
X116306077Y-123298390D02*
X116210839Y-123250771D01*
X116210839Y-123250771D02*
X115972744Y-123250771D01*
X115972744Y-123250771D02*
X115877506Y-123298390D01*
X115877506Y-123298390D02*
X115829887Y-123346009D01*
X115829887Y-123346009D02*
X115782268Y-123441247D01*
X115782268Y-123441247D02*
X115782268Y-123679342D01*
X115782268Y-123679342D02*
X115829887Y-123774580D01*
X115829887Y-123774580D02*
X115877506Y-123822200D01*
X115877506Y-123822200D02*
X115972744Y-123869819D01*
X115972744Y-123869819D02*
X116210839Y-123869819D01*
X116210839Y-123869819D02*
X116306077Y-123822200D01*
X116306077Y-123822200D02*
X116353696Y-123774580D01*
X115353696Y-123488866D02*
X114591792Y-123488866D01*
X113925125Y-122869819D02*
X113829887Y-122869819D01*
X113829887Y-122869819D02*
X113734649Y-122917438D01*
X113734649Y-122917438D02*
X113687030Y-122965057D01*
X113687030Y-122965057D02*
X113639411Y-123060295D01*
X113639411Y-123060295D02*
X113591792Y-123250771D01*
X113591792Y-123250771D02*
X113591792Y-123488866D01*
X113591792Y-123488866D02*
X113639411Y-123679342D01*
X113639411Y-123679342D02*
X113687030Y-123774580D01*
X113687030Y-123774580D02*
X113734649Y-123822200D01*
X113734649Y-123822200D02*
X113829887Y-123869819D01*
X113829887Y-123869819D02*
X113925125Y-123869819D01*
X113925125Y-123869819D02*
X114020363Y-123822200D01*
X114020363Y-123822200D02*
X114067982Y-123774580D01*
X114067982Y-123774580D02*
X114115601Y-123679342D01*
X114115601Y-123679342D02*
X114163220Y-123488866D01*
X114163220Y-123488866D02*
X114163220Y-123250771D01*
X114163220Y-123250771D02*
X114115601Y-123060295D01*
X114115601Y-123060295D02*
X114067982Y-122965057D01*
X114067982Y-122965057D02*
X114020363Y-122917438D01*
X114020363Y-122917438D02*
X113925125Y-122869819D01*
X113020363Y-123298390D02*
X113115601Y-123250771D01*
X113115601Y-123250771D02*
X113163220Y-123203152D01*
X113163220Y-123203152D02*
X113210839Y-123107914D01*
X113210839Y-123107914D02*
X113210839Y-123060295D01*
X113210839Y-123060295D02*
X113163220Y-122965057D01*
X113163220Y-122965057D02*
X113115601Y-122917438D01*
X113115601Y-122917438D02*
X113020363Y-122869819D01*
X113020363Y-122869819D02*
X112829887Y-122869819D01*
X112829887Y-122869819D02*
X112734649Y-122917438D01*
X112734649Y-122917438D02*
X112687030Y-122965057D01*
X112687030Y-122965057D02*
X112639411Y-123060295D01*
X112639411Y-123060295D02*
X112639411Y-123107914D01*
X112639411Y-123107914D02*
X112687030Y-123203152D01*
X112687030Y-123203152D02*
X112734649Y-123250771D01*
X112734649Y-123250771D02*
X112829887Y-123298390D01*
X112829887Y-123298390D02*
X113020363Y-123298390D01*
X113020363Y-123298390D02*
X113115601Y-123346009D01*
X113115601Y-123346009D02*
X113163220Y-123393628D01*
X113163220Y-123393628D02*
X113210839Y-123488866D01*
X113210839Y-123488866D02*
X113210839Y-123679342D01*
X113210839Y-123679342D02*
X113163220Y-123774580D01*
X113163220Y-123774580D02*
X113115601Y-123822200D01*
X113115601Y-123822200D02*
X113020363Y-123869819D01*
X113020363Y-123869819D02*
X112829887Y-123869819D01*
X112829887Y-123869819D02*
X112734649Y-123822200D01*
X112734649Y-123822200D02*
X112687030Y-123774580D01*
X112687030Y-123774580D02*
X112639411Y-123679342D01*
X112639411Y-123679342D02*
X112639411Y-123488866D01*
X112639411Y-123488866D02*
X112687030Y-123393628D01*
X112687030Y-123393628D02*
X112734649Y-123346009D01*
X112734649Y-123346009D02*
X112829887Y-123298390D01*
M02*
