M48
; DRILL file {KiCad 9.0.4} date 2025-08-30T13:56:34-0700
; FORMAT={-:-/ absolute / metric / decimal}
; #@! TF.CreationDate,2025-08-30T13:56:34-07:00
; #@! TF.GenerationSoftware,Kicad,Pcbnew,9.0.4
; #@! TF.FileFunction,Plated,1,2,PTH
FMAT,2
METRIC
; #@! TA.AperFunction,Plated,PTH,ViaDrill
T1C0.400
; #@! TA.AperFunction,Plated,PTH,ComponentDrill
T2C0.800
; #@! TA.AperFunction,Plated,PTH,ComponentDrill
T3C0.900
; #@! TA.AperFunction,Plated,PTH,ComponentDrill
T4C1.000
; #@! TA.AperFunction,Plated,PTH,ComponentDrill
T5C1.016
; #@! TA.AperFunction,Plated,PTH,ComponentDrill
T6C1.100
%
G90
G05
T1
X54.968Y-141.19
X55.476Y-129.76
X61.064Y-135.221
X63.858Y-123.791
X65.509Y-135.221
X80.368Y-119.346
X80.622Y-130.395
X81.257Y-118.711
X81.257Y-121.251
X81.257Y-123.537
X81.257Y-124.68
X81.342Y-115.79
X81.342Y-116.933
X81.342Y-125.95
X81.384Y-90.136
X84.942Y-115.79
X84.942Y-116.899
X85.067Y-118.711
X85.067Y-119.854
X85.067Y-122.648
X85.321Y-130.395
X86.21Y-123.918
X86.464Y-116.298
X86.972Y-146.016
X87.226Y-119.854
X88.497Y-144.511
X88.877Y-116.806
X89.258Y-143.222
X90.782Y-149.064
X91.29Y-147.286
X92.306Y-146.27
X94.846Y-141.698
X94.846Y-144.238
X100.688Y-89.755
X103.101Y-84.802
X104.593Y-134.078
X105.043Y-136.464
X105.26Y-123.918
X105.768Y-98.645
X105.768Y-137.634
X106.53Y-99.534
X107.419Y-100.423
X107.606Y-116.866
X109.197Y-102.201
X109.197Y-134.078
X110.086Y-90.771
X110.213Y-95.597
X110.499Y-136.65
X110.606Y-137.912
X111.737Y-98.772
X112.843Y-123.844
X113.134Y-97.502
X113.259Y-127.476
X114.15Y-100.423
X123.136Y-110.075
X124.437Y-124.553
X124.564Y-142.714
X126.459Y-117.59
X127.612Y-116.806
X128.247Y-145.878
X128.247Y-150.334
X129.263Y-110.075
X132.692Y-136.364
X134.47Y-141.19
X140.693Y-146.397
X142.217Y-132.173
X142.338Y-134.521
X143.36Y-134.459
T2
X65.462Y-122.452
X65.462Y-124.992
X69.272Y-122.452
X69.272Y-124.992
X71.986Y-131.03
X71.986Y-133.57
X73.082Y-122.452
X73.082Y-124.992
X76.812Y-129.252
X76.812Y-131.792
X76.892Y-122.452
X76.892Y-124.992
X78.0Y-114.0
X78.0Y-119.0
X127.612Y-124.172
X127.612Y-127.982
X130.152Y-124.172
X130.152Y-127.982
X153.5Y-123.682
X153.5Y-126.182
X155.0Y-139.96
X155.0Y-142.5
T3
X153.012Y-149.572
X155.552Y-149.572
T4
X60.302Y-148.302
X60.302Y-150.842
X62.842Y-148.302
X62.842Y-150.842
X65.382Y-148.302
X65.382Y-150.842
X67.922Y-148.302
X67.922Y-150.842
X70.462Y-148.302
X70.462Y-150.842
X73.002Y-148.302
X73.002Y-150.842
X74.272Y-143.222
X76.812Y-143.222
X78.082Y-151.35
X79.352Y-143.222
X80.622Y-151.35
X81.892Y-143.222
X83.162Y-151.35
X84.432Y-143.222
X86.972Y-143.222
X88.242Y-151.35
X90.782Y-151.35
X93.322Y-151.35
X97.132Y-111.472
X98.91Y-118.838
X98.91Y-121.378
X98.91Y-123.918
X98.91Y-126.458
X98.91Y-128.998
X98.91Y-131.538
X98.91Y-134.078
X98.91Y-136.618
X98.91Y-139.158
X98.91Y-141.698
X98.91Y-144.238
X98.91Y-146.778
X98.91Y-149.318
X98.91Y-151.858
X99.672Y-111.472
X102.212Y-111.472
X104.752Y-111.472
X107.292Y-111.472
X109.832Y-111.472
X115.166Y-112.361
X117.706Y-112.361
X120.246Y-112.361
X121.77Y-118.838
X121.77Y-121.378
X121.77Y-123.918
X121.77Y-126.458
X121.77Y-128.998
X121.77Y-131.538
X121.77Y-134.078
X121.77Y-136.618
X121.77Y-139.158
X121.77Y-141.698
X121.77Y-144.238
X121.77Y-146.778
X121.77Y-149.318
X121.77Y-151.858
X122.786Y-112.361
X131.422Y-142.587
X131.422Y-145.127
X136.502Y-124.172
X136.502Y-126.712
X136.502Y-129.252
X136.502Y-131.792
X136.502Y-135.602
X136.502Y-138.142
X136.502Y-140.682
X136.502Y-143.222
X140.312Y-124.172
X140.312Y-126.712
X140.312Y-129.252
X140.312Y-131.792
X140.312Y-135.602
X140.312Y-138.142
X140.312Y-140.682
X140.312Y-143.222
X147.932Y-130.522
X147.932Y-133.062
X147.932Y-135.602
X147.932Y-138.142
X147.932Y-140.682
X150.472Y-130.522
X150.472Y-133.062
X150.472Y-135.602
X150.472Y-138.142
X150.472Y-140.682
T5
X58.032Y-129.312
X60.572Y-129.312
X63.112Y-129.312
X65.652Y-129.312
X68.192Y-129.312
X68.192Y-139.98
X77.773Y-85.312
X80.313Y-85.312
X82.853Y-85.312
X85.393Y-85.312
X85.393Y-108.172
X87.933Y-85.312
X87.933Y-87.852
X87.933Y-108.172
X90.473Y-85.312
X90.473Y-87.852
X90.473Y-108.172
X93.013Y-85.312
X93.013Y-87.852
X93.013Y-108.172
X93.83Y-126.712
X93.83Y-129.252
X93.83Y-131.792
X93.83Y-134.332
X95.553Y-85.312
X98.093Y-85.312
X100.633Y-85.312
X105.713Y-85.312
X108.253Y-85.312
X110.793Y-85.312
X113.333Y-85.312
X113.333Y-108.172
X115.873Y-85.312
X115.873Y-87.852
X115.873Y-108.172
X118.413Y-85.312
X118.413Y-87.852
X118.413Y-108.172
X120.953Y-85.312
X120.953Y-87.852
X120.953Y-108.172
X123.493Y-85.312
X126.033Y-85.312
X128.573Y-85.312
T6
X81.13Y-137.634
X83.42Y-137.634
X85.71Y-137.634
X88.996Y-137.634
X91.286Y-137.634
X93.576Y-137.634
X102.72Y-118.838
X102.72Y-121.378
X102.72Y-123.918
X102.72Y-126.458
X102.72Y-128.998
X102.72Y-131.538
X102.72Y-134.078
X102.72Y-136.618
X102.72Y-139.158
X102.72Y-141.698
X102.72Y-144.238
X102.72Y-146.778
X102.72Y-149.318
X102.72Y-151.858
X117.96Y-118.838
X117.96Y-121.378
X117.96Y-123.918
X117.96Y-126.458
X117.96Y-128.998
X117.96Y-131.538
X117.96Y-134.078
X117.96Y-136.618
X117.96Y-139.158
X117.96Y-141.698
X117.96Y-144.238
X117.96Y-146.778
X117.96Y-149.318
X117.96Y-151.858
M30
